<svg width="44" height="44" viewBox="0 0 44 44" fill="none" xmlns="http://www.w3.org/2000/svg">
<path d="M9.50408 30.0003C9.34441 30.0003 9.20818 29.9447 9.09636 29.8324C9.03923 29.7748 8.99675 29.7113 8.96843 29.6419C8.94158 29.5746 8.92839 29.5023 8.92839 29.4242V20.0638H6.98406C6.82439 20.0638 6.68816 20.0082 6.57634 19.8958C6.46404 19.7845 6.40837 19.6488 6.40837 19.4886V18.096C6.40837 17.9359 6.46404 17.8001 6.57634 17.6878C6.68816 17.5765 6.82439 17.5199 6.98406 17.5199H8.92839V16.5365C8.92839 15.5765 9.10417 14.7845 9.45622 14.1605C9.80828 13.5199 10.3283 13.0404 11.0163 12.7201C11.3595 12.5609 11.7487 12.4408 12.1838 12.3607C12.6203 12.2806 13.1032 12.2406 13.632 12.2406H15.2643C15.3127 12.2406 15.3581 12.2445 15.4006 12.2533L15.4596 12.2679C15.507 12.2835 15.55 12.305 15.5885 12.3324C15.6193 12.3539 15.6471 12.3792 15.672 12.4085C15.7843 12.5199 15.84 12.6566 15.84 12.8167V14.2084C15.84 14.3685 15.7843 14.5042 15.672 14.6166C15.5763 14.7279 15.4401 14.7845 15.2643 14.7845H13.7282C13.0881 14.7845 12.6481 14.9447 12.4084 15.264C12.1681 15.5843 12.048 16.0482 12.048 16.6566V17.5199H15.0241C15.1354 17.5199 15.2306 17.5423 15.3097 17.5873C15.3561 17.6136 15.3967 17.6468 15.4323 17.6878C15.5441 17.8001 15.6003 17.9359 15.6003 18.096V19.4886C15.6003 19.5531 15.5915 19.6136 15.5734 19.6703C15.5632 19.7005 15.5505 19.7298 15.5353 19.7582C15.509 19.808 15.4748 19.8539 15.4323 19.8958C15.3361 20.0082 15.2004 20.0638 15.0241 20.0638H12.048V29.4242C12.048 29.5843 11.9924 29.7201 11.8801 29.8324C11.8132 29.8998 11.7375 29.9466 11.6535 29.974C11.5968 29.9916 11.5363 30.0003 11.4723 30.0003H9.50408Z" fill="black" fill-opacity="0.6"/>
<path fill-rule="evenodd" clip-rule="evenodd" d="M20.0217 30.2406C19.1896 30.2406 18.4377 30.0804 17.7658 29.7601C17.6457 29.7005 17.53 29.6371 17.4186 29.5707C16.9064 29.264 16.4865 28.888 16.1574 28.4408C15.7736 27.8802 15.5817 27.2562 15.5817 26.5687C15.5817 25.4486 16.0295 24.5599 16.9255 23.9046C17.4147 23.5443 17.987 23.2484 18.6423 23.0169C19.2082 22.8167 19.8361 22.6644 20.5256 22.5599L23.8136 22.0804V21.5765C23.8136 21.3412 23.7931 21.1253 23.7521 20.9271C23.6755 20.5589 23.528 20.2552 23.3097 20.016C22.9738 19.6488 22.3976 19.4642 21.5817 19.4642C21.0055 19.4642 20.5334 19.5843 20.1657 19.8246C19.8136 20.0482 19.5495 20.3519 19.3737 20.7367C19.2458 20.9447 19.0617 21.0482 18.8215 21.0482H16.9255C16.7497 21.0482 16.6135 21.0003 16.5177 20.9046C16.4377 20.808 16.3976 20.68 16.3976 20.5199C16.4137 20.264 16.5177 19.9525 16.7096 19.5843C16.9015 19.2162 17.2057 18.8646 17.6218 18.5287C18.0378 18.1761 18.5734 17.8802 19.2297 17.64C19.8854 17.4007 20.6774 17.2806 21.6056 17.2806C22.6135 17.2806 23.4616 17.4085 24.1496 17.6644C24.8537 17.9046 25.4137 18.2328 25.8298 18.6488C26.2458 19.0638 26.5495 19.5521 26.7414 20.1126C26.9338 20.6722 27.0295 21.264 27.0295 21.888V29.4242C27.0295 29.5843 26.9738 29.7201 26.8615 29.8324C26.7497 29.9447 26.6135 30.0003 26.4538 30.0003H24.5094C24.4377 30.0003 24.3713 29.9916 24.3102 29.973C24.2218 29.9457 24.1442 29.8988 24.0778 29.8324C24.0363 29.7845 24.0041 29.7318 23.9806 29.6742C23.9494 29.598 23.9338 29.515 23.9338 29.4242V28.4886C23.8346 28.6332 23.7189 28.7748 23.5866 28.9125C23.4421 29.0638 23.2775 29.2103 23.0934 29.3519C22.9577 29.4515 22.8097 29.5443 22.6501 29.6312C22.3962 29.7699 22.112 29.8929 21.7975 30.0003C21.6398 30.0511 21.4723 30.0941 21.2951 30.1292C21.1877 30.1507 21.0768 30.1683 20.9626 30.183C20.672 30.221 20.3586 30.2406 20.0217 30.2406ZM20.8376 27.9603C21.3976 27.9603 21.9015 27.8402 22.3498 27.6C22.5641 27.4896 22.7565 27.3519 22.9264 27.1859C23.0397 27.0755 23.1432 26.9525 23.237 26.8177C23.3068 26.7171 23.3708 26.6107 23.4294 26.4964C23.7018 25.9847 23.8376 25.3441 23.8376 24.5765V24.0726L21.4377 24.4564C20.4938 24.6 19.7897 24.8324 19.3254 25.1527C19.1779 25.2542 19.0539 25.3626 18.9533 25.4789C18.8444 25.6048 18.7629 25.7396 18.7087 25.8822C18.6559 26.0228 18.6296 26.1722 18.6296 26.3285C18.6296 26.3851 18.6325 26.4408 18.6379 26.4955C18.6432 26.5492 18.651 26.6019 18.6618 26.6537C18.7077 26.8714 18.8005 27.0667 18.9416 27.2406C19.1657 27.4798 19.4455 27.6644 19.7814 27.7923C20.1178 27.9046 20.4694 27.9603 20.8376 27.9603Z" fill="black" fill-opacity="0.6"/>
<path d="M34.6716 30.0003C33.7116 30.0003 32.9035 29.8324 32.2472 29.4964C31.5915 29.1605 31.1032 28.6644 30.7834 28.0082C30.4635 27.3363 30.3034 26.5042 30.3034 25.5121V20.0638H28.4074C28.2472 20.0638 28.1115 20.0082 27.9992 19.8958C27.8874 19.7845 27.8312 19.6488 27.8312 19.4886V18.096C27.8312 17.9359 27.8874 17.8001 27.9992 17.6878C28.1115 17.5765 28.2472 17.5199 28.4074 17.5199H30.3034V13.5365C30.3034 13.3763 30.3512 13.2406 30.4474 13.1283C30.5593 13.016 30.7033 12.9603 30.8796 12.9603H32.8234C32.9035 12.9603 32.9772 12.974 33.0451 13.0013C33.113 13.0296 33.175 13.0716 33.2311 13.1283C33.3434 13.2406 33.3996 13.3763 33.3996 13.5365V17.5199H36.3996C36.4328 17.5199 36.465 17.5228 36.4958 17.5277C36.5632 17.5375 36.6257 17.5589 36.6838 17.5921C36.7277 17.6175 36.7687 17.6498 36.8073 17.6878C36.9191 17.8001 36.9753 17.9359 36.9753 18.096V19.4886C36.9753 19.5824 36.9562 19.6673 36.9181 19.7445C36.8908 19.7992 36.8537 19.85 36.8073 19.8958C36.7565 19.9466 36.7009 19.9857 36.6403 20.014C36.5676 20.0472 36.487 20.0638 36.3996 20.0638H33.3996V25.2718C33.3996 25.9281 33.5114 26.4408 33.7355 26.808C33.9753 27.1761 34.3835 27.3607 34.9592 27.3607H36.6154C36.6589 27.3607 36.7009 27.3646 36.7404 27.3724C36.7883 27.3822 36.8337 27.3978 36.8761 27.4203L36.8986 27.432C36.9245 27.4466 36.9494 27.4642 36.9733 27.4837C36.9904 27.4974 37.007 27.5121 37.0231 27.5287C37.1354 27.64 37.1916 27.7767 37.1916 27.9359V29.4242C37.1916 29.5843 37.1354 29.7201 37.0231 29.8324C36.9113 29.9447 36.7756 30.0003 36.6154 30.0003H34.6716Z" fill="black" fill-opacity="0.6"/>
<path d="M35.1847 3.27866C38.485 3.23862 40.8508 6.71812 41.1506 10.7093C41.1647 10.8949 41.0881 11.0755 40.9484 11.1996C40.5627 11.5414 39.9386 11.2845 39.8552 10.7757C39.3547 7.70737 37.6242 5.1146 35.2214 4.47593C34.7712 4.35581 34.5319 3.70933 34.8805 3.39976C34.9645 3.32554 35.0724 3.28062 35.1847 3.27866Z" fill="black" fill-opacity="0.1"/>
<path d="M3.00408 32.4486C3.1071 36.4505 5.29851 40.0414 8.59685 40.1644C8.70915 40.1683 8.81902 40.1292 8.90642 40.0589C9.2697 39.7669 9.06316 39.1087 8.61931 38.9671C6.25066 38.2103 4.65007 35.5355 4.30095 32.4466C4.24285 31.9339 3.63201 31.6468 3.23015 31.9701C3.16374 32.0228 3.10955 32.0892 3.07097 32.1625C3.02556 32.2503 3.00163 32.348 3.00408 32.4486Z" fill="black" fill-opacity="0.1"/>
<path d="M22.3494 27.6C21.9014 27.84 21.3974 27.96 20.8374 27.96C20.4694 27.96 20.1174 27.904 19.7814 27.792C19.4454 27.664 19.1654 27.48 18.9414 27.24C18.7334 26.984 18.6294 26.68 18.6294 26.328C18.6294 25.864 18.8614 25.472 19.3254 25.152C19.7894 24.832 20.4934 24.6 21.4374 24.456L23.8374 24.072V24.576C23.8374 25.344 23.7014 25.984 23.4294 26.496C23.1734 26.992 22.8134 27.36 22.3494 27.6Z" fill="white" fill-opacity="0.1"/>
<path fill-rule="evenodd" clip-rule="evenodd" d="M12 0C5.37258 0 0 5.37258 0 12V32C0 38.6274 5.37258 44 12 44H32C38.6274 44 44 38.6274 44 32V12C44 5.37258 38.6274 0 32 0H12ZM9.096 29.832C9.208 29.944 9.344 30 9.504 30H11.472C11.632 30 11.768 29.944 11.88 29.832C11.992 29.72 12.048 29.584 12.048 29.424V20.064H15.024C15.2 20.064 15.336 20.008 15.432 19.896C15.544 19.784 15.6 19.648 15.6 19.488V18.096C15.6 17.936 15.544 17.8 15.432 17.688C15.336 17.576 15.2 17.52 15.024 17.52H12.048V16.656C12.048 16.048 12.168 15.584 12.408 15.264C12.648 14.944 13.088 14.784 13.728 14.784H15.264C15.44 14.784 15.576 14.728 15.672 14.616C15.784 14.504 15.84 14.368 15.84 14.208V12.816C15.84 12.656 15.784 12.52 15.672 12.408C15.576 12.296 15.44 12.24 15.264 12.24H13.632C12.576 12.24 11.704 12.4 11.016 12.72C10.328 13.04 9.808 13.52 9.456 14.16C9.104 14.784 8.928 15.576 8.928 16.536V17.52H6.984C6.824 17.52 6.688 17.576 6.576 17.688C6.464 17.8 6.408 17.936 6.408 18.096V19.488C6.408 19.648 6.464 19.784 6.576 19.896C6.688 20.008 6.824 20.064 6.984 20.064H8.928V29.424C8.928 29.584 8.984 29.72 9.096 29.832ZM17.7654 29.76C18.4374 30.08 19.1894 30.24 20.0214 30.24C20.7094 30.24 21.3014 30.16 21.7974 30C22.3094 29.824 22.7414 29.608 23.0934 29.352C23.4454 29.08 23.7254 28.792 23.9334 28.488V29.424C23.9334 29.584 23.9814 29.72 24.0774 29.832C24.1894 29.944 24.3334 30 24.5094 30H26.4534C26.6134 30 26.7494 29.944 26.8614 29.832C26.9734 29.72 27.0294 29.584 27.0294 29.424V21.888C27.0294 21.264 26.9334 20.672 26.7414 20.112C26.5494 19.552 26.2454 19.064 25.8294 18.648C25.4134 18.232 24.8534 17.904 24.1494 17.664C23.4614 17.408 22.6134 17.28 21.6054 17.28C20.6774 17.28 19.8854 17.4 19.2294 17.64C18.5734 17.88 18.0374 18.176 17.6214 18.528C17.2054 18.864 16.9014 19.216 16.7094 19.584C16.5174 19.952 16.4134 20.264 16.3974 20.52C16.3974 20.68 16.4374 20.808 16.5174 20.904C16.6134 21 16.7494 21.048 16.9254 21.048H18.8214C19.0614 21.048 19.2454 20.944 19.3734 20.736C19.5494 20.352 19.8134 20.048 20.1654 19.824C20.5334 19.584 21.0054 19.464 21.5814 19.464C22.3974 19.464 22.9734 19.648 23.3094 20.016C23.6454 20.384 23.8134 20.904 23.8134 21.576V22.08L20.5254 22.56C19.0374 22.784 17.8374 23.232 16.9254 23.904C16.0294 24.56 15.5814 25.448 15.5814 26.568C15.5814 27.256 15.7734 27.88 16.1574 28.44C16.5574 28.984 17.0934 29.424 17.7654 29.76ZM32.2472 29.496C32.9032 29.832 33.7112 30 34.6712 30H36.6152C36.7752 30 36.9112 29.944 37.0232 29.832C37.1352 29.72 37.1912 29.584 37.1912 29.424V27.936C37.1912 27.776 37.1352 27.64 37.0232 27.528C36.9112 27.416 36.7752 27.36 36.6152 27.36H34.9592C34.3832 27.36 33.9752 27.176 33.7352 26.808C33.5112 26.44 33.3992 25.928 33.3992 25.272V20.064H36.3992C36.5592 20.064 36.6952 20.008 36.8072 19.896C36.9192 19.784 36.9752 19.648 36.9752 19.488V18.096C36.9752 17.936 36.9192 17.8 36.8072 17.688C36.6952 17.576 36.5592 17.52 36.3992 17.52H33.3992V13.536C33.3992 13.376 33.3432 13.24 33.2312 13.128C33.1192 13.016 32.9832 12.96 32.8232 12.96H30.8792C30.7032 12.96 30.5592 13.016 30.4472 13.128C30.3512 13.24 30.3032 13.376 30.3032 13.536V17.52H28.4072C28.2472 17.52 28.1112 17.576 27.9992 17.688C27.8872 17.8 27.8312 17.936 27.8312 18.096V19.488C27.8312 19.648 27.8872 19.784 27.9992 19.896C28.1112 20.008 28.2472 20.064 28.4072 20.064H30.3032V25.512C30.3032 26.504 30.4632 27.336 30.7832 28.008C31.1032 28.664 31.5912 29.16 32.2472 29.496ZM41.1505 10.7091C40.8506 6.71739 38.4849 3.23873 35.1846 3.27881C35.0722 3.28017 34.9644 3.32482 34.8804 3.39941C34.5318 3.70873 34.7709 4.35567 35.2212 4.4754C37.624 5.11422 39.3543 7.70733 39.8551 10.7755C39.9383 11.2845 40.5626 11.5413 40.9484 11.1989C41.0877 11.0753 41.1644 10.8948 41.1505 10.7091ZM8.59662 40.1637C5.29834 40.0412 3.10673 36.4503 3.00379 32.4487C2.999 32.2625 3.0845 32.086 3.22974 31.9694C3.63191 31.6464 4.24289 31.9337 4.30083 32.4462C4.65003 35.5353 6.25048 38.2104 8.61891 38.9668C9.06283 39.1085 9.26972 39.7665 8.90637 40.0583C8.81876 40.1286 8.70891 40.1679 8.59662 40.1637Z" fill="white" fill-opacity="0.4"/>
</svg>
