<svg width="2300" height="2044" viewBox="0 0 2300 2044" fill="none" xmlns="http://www.w3.org/2000/svg">
<g clip-path="url(#clip0_257_49)">
<g filter="url(#filter0_d_257_49)">
<path fill-rule="evenodd" clip-rule="evenodd" d="M1175.44 50.8879V0H1176.5V50.8879H1226.31V0H1227.37V50.8879H1277.19V0H1278.25V50.8879H1328.06V0H1329.12V50.8879H1378.94V0H1380V50.8879H1429.82V0H1430.88V50.8879H1480.69V0H1481.75V50.8879H1531.57V0H1532.63V50.8879L1582.44 50.888V0H1583.5V50.888H1633.32V0H1634.38V50.888H1684.19V0H1685.25V50.888H1735.07V0H1736.13V50.888H1785.94V0H1787V50.888H1836.82V0H1837.88V50.888H1887.7V0H1888.76V50.888H1938.57V0H1939.63V50.888H1989.45V0H1990.51V50.888H2040.32V0H2041.38V50.888H2091.2V0H2092.26V50.888H2142.07V0H2143.13V50.888H2192.95V0H2194.01V50.888H2243.82V0H2244.88V50.888H2294.7V0H2295.76V2035.52H2294.7V1985.69H2244.88V2035.52H2243.82V1985.69H2194.01V2035.52H2192.95V1985.69H2143.13V2035.52H2142.07V1985.69H2092.26V2035.52H2091.2V1985.69H2041.38V2035.52H2040.32V1985.69H1990.51V2035.52H1989.45V1985.69H1939.63V2035.52H1938.57V1985.69H1888.76V2035.52H1887.7V1985.69H1837.88V2035.52H1836.82V1985.69H1787V2035.52H1785.94V1985.69H1736.13V2035.52H1735.07V1985.69H1685.25V2035.52H1684.19V1985.69H1634.38V2035.52H1633.32V1985.69H1583.5V2035.52H1582.44V1985.69H1532.63V2035.52H1531.57V1985.69H1481.75V2035.52H1480.69V1985.69H1430.88V2035.52H1429.82V1985.69H1380V2035.52H1378.94V1985.69H1329.12V2035.52H1328.06V1985.69H1278.25V2035.52H1277.19V1985.69H1227.37V2035.52H1226.31V1985.69H1176.5V2035.52H1175.44V1985.69H1122.44V1984.63H1175.44V1934.8H1122.44V1933.74H1175.44V1883.91H1122.44V1882.85H1175.44V1833.03H1122.44V1831.97H1175.44V1782.14H1122.44V1781.08H1175.44V1731.25H1122.44V1730.19H1175.44V1680.36H1122.44V1679.3H1175.44V1629.48H1122.44V1628.41H1175.44V1578.59H1122.44V1577.53H1175.44V1527.7H1122.44V1526.64H1175.44V1476.81H1122.44V1475.75H1175.44V1425.92H1122.44V1424.86H1175.44V1375.04H1122.44V1373.98H1175.44V1324.15H1122.44V1323.09H1175.44V1273.26H1122.44V1272.2H1175.44V1222.37H1122.44V1221.31H1175.44V1171.48H1122.44V1170.42H1175.44V1120.6H1122.44V1119.54H1175.44V1069.71H1122.44V1068.65H1175.44V1018.82H1122.44V1017.76H1175.44V967.932H1122.44V966.871H1175.44V917.044H1122.44V915.983H1175.44V866.156H1122.44V865.095H1175.44V815.268H1122.44V814.207H1175.44V764.38H1122.44V763.32H1175.44V713.492H1122.44V712.432H1175.44V662.604H1122.44V661.544H1175.44V611.716H1122.44V610.656H1175.44V560.828H1122.44V559.768H1175.44V509.94H1122.44V508.88H1175.44V459.052H1122.44V457.992H1175.44V408.164H1122.44V407.104H1175.44V357.276H1122.44V356.216H1175.44V306.388H1122.44V305.328H1175.44V255.5H1122.44V254.44H1175.44V204.612H1122.44V203.552H1175.44V153.724H1122.44V152.664H1175.44V102.836H1122.44V101.776H1175.44V51.948H1122.44V50.8879H1175.44ZM1176.5 51.948V101.776H1226.31V51.948H1176.5ZM1227.37 51.948V101.776H1277.19V51.948H1227.37ZM1278.25 51.948V101.776H1328.06V51.948H1278.25ZM1329.12 51.948V101.776H1378.94V51.948H1329.12ZM1380 51.948V101.776H1429.82V51.948H1380ZM1430.88 51.948V101.776H1480.69V51.948H1430.88ZM1481.75 51.948V101.776H1531.57V51.948H1481.75ZM1532.63 51.948V101.776H1582.44V51.9481L1532.63 51.948ZM1583.5 51.9481V101.776L1633.32 101.776V51.9481H1583.5ZM1634.38 51.9481V101.776H1684.19V51.9481H1634.38ZM1685.25 51.9481V101.776H1735.07V51.9481H1685.25ZM1736.13 51.9481V101.776H1785.94V51.9481H1736.13ZM1787 51.9481V101.776H1836.82V51.9481H1787ZM1837.88 51.9481V101.776H1887.7V51.9481H1837.88ZM1888.76 51.9481V101.776H1938.57V51.9481H1888.76ZM1939.63 51.9481V101.776H1989.45V51.9481H1939.63ZM1990.51 51.9481V101.776H2040.32V51.9481H1990.51ZM2041.38 51.9481V101.776H2091.2V51.9481H2041.38ZM2092.26 51.9481V101.776H2142.07V51.9481H2092.26ZM2143.13 51.9481V101.776H2192.95V51.9481H2143.13ZM2194.01 51.9481V101.776H2243.82V51.9481H2194.01ZM2244.88 51.9481V101.776H2294.7V51.9481H2244.88ZM2243.82 102.836H2194.01V152.664H2243.82V102.836ZM2244.88 152.664V102.836H2294.7V152.664H2244.88ZM2243.82 153.724H2194.01V203.552H2243.82V153.724ZM2244.88 203.552V153.724H2294.7V203.552H2244.88ZM2243.82 204.612H2194.01V254.44H2243.82V204.612ZM2244.88 254.44V204.612H2294.7V254.44H2244.88ZM2243.82 255.5H2194.01V305.328H2243.82V255.5ZM2244.88 305.328V255.5H2294.7V305.328H2244.88ZM2243.82 306.388H2194.01V356.216H2243.82V306.388ZM2244.88 356.216V306.388H2294.7V356.216H2244.88ZM2243.82 357.276H2194.01V407.104H2243.82V357.276ZM2244.88 407.104V357.276H2294.7V407.104H2244.88ZM2243.82 408.164H2194.01V457.992H2243.82V408.164ZM2244.88 457.992V408.164H2294.7V457.992H2244.88ZM2243.82 459.052H2194.01V508.88H2243.82V459.052ZM2244.88 508.88V459.052H2294.7V508.88H2244.88ZM2243.82 509.94H2194.01V559.768H2243.82V509.94ZM2244.88 559.768V509.94H2294.7V559.768H2244.88ZM2243.82 560.828H2194.01V610.656H2243.82V560.828ZM2244.88 610.656V560.828H2294.7V610.656H2244.88ZM2243.82 611.716H2194.01V661.544H2243.82V611.716ZM2244.88 661.544V611.716H2294.7V661.544H2244.88ZM2243.82 662.604H2194.01V712.432H2243.82V662.604ZM2244.88 712.432V662.604H2294.7V712.432H2244.88ZM2243.82 713.492H2194.01V763.32H2243.82V713.492ZM2244.88 763.32V713.492H2294.7V763.32H2244.88ZM2243.82 764.38H2194.01V814.207H2243.82V764.38ZM2244.88 814.207V764.38H2294.7V814.207H2244.88ZM2243.82 815.268H2194.01V865.095H2243.82V815.268ZM2244.88 865.095V815.268H2294.7V865.095H2244.88ZM2243.82 866.156H2194.01V915.983H2243.82V866.156ZM2244.88 915.983V866.156H2294.7V915.983H2244.88ZM2243.82 917.044H2194.01V966.871H2243.82V917.044ZM2244.88 966.871V917.044H2294.7V966.871H2244.88ZM2243.82 967.932H2194.01V1017.76H2243.82V967.932ZM2244.88 1017.76V967.932H2294.7V1017.76H2244.88ZM2243.82 1018.82H2194.01V1068.65H2243.82V1018.82ZM2244.88 1068.65V1018.82H2294.7V1068.65H2244.88ZM2243.82 1069.71H2194.01V1119.54H2243.82V1069.71ZM2244.88 1119.54V1069.71H2294.7V1119.54H2244.88ZM2243.82 1120.6H2194.01V1170.42H2243.82V1120.6ZM2244.88 1170.42V1120.6H2294.7V1170.42H2244.88ZM2243.82 1171.48H2194.01V1221.31H2243.82V1171.48ZM2244.88 1221.31V1171.48H2294.7V1221.31H2244.88ZM2243.82 1222.37H2194.01V1272.2H2243.82V1222.37ZM2244.88 1272.2V1222.37H2294.7V1272.2H2244.88ZM2243.82 1273.26H2194.01V1323.09H2243.82V1273.26ZM2244.88 1323.09V1273.26H2294.7V1323.09H2244.88ZM2243.82 1324.15H2194.01V1373.98H2243.82V1324.15ZM2244.88 1373.98V1324.15H2294.7V1373.98H2244.88ZM2243.82 1375.04H2194.01V1424.86H2243.82V1375.04ZM2244.88 1424.86V1375.04H2294.7V1424.86H2244.88ZM2243.82 1425.92H2194.01V1475.75H2243.82V1425.92ZM2244.88 1475.75V1425.92H2294.7V1475.75H2244.88ZM2243.82 1476.81H2194.01V1526.64H2243.82V1476.81ZM2244.88 1526.64V1476.81H2294.7V1526.64H2244.88ZM2243.82 1527.7H2194.01V1577.53H2243.82V1527.7ZM2244.88 1577.53V1527.7H2294.7V1577.53H2244.88ZM2243.82 1578.59H2194.01V1628.41H2243.82V1578.59ZM2244.88 1628.41V1578.59H2294.7V1628.41H2244.88ZM2243.82 1629.48H2194.01V1679.3H2243.82V1629.48ZM2244.88 1679.3V1629.48H2294.7V1679.3H2244.88ZM2243.82 1680.36H2194.01V1730.19H2243.82V1680.36ZM2244.88 1730.19V1680.36H2294.7V1730.19H2244.88ZM2243.82 1731.25H2194.01V1781.08H2243.82V1731.25ZM2244.88 1781.08V1731.25H2294.7V1781.08H2244.88ZM2243.82 1782.14H2194.01V1831.97H2243.82V1782.14ZM2244.88 1831.97V1782.14H2294.7V1831.97H2244.88ZM2243.82 1833.03H2194.01V1882.85H2243.82V1833.03ZM2244.88 1882.85V1833.03H2294.7V1882.85H2244.88ZM2243.82 1883.91H2194.01V1933.74H2243.82V1883.91ZM2244.88 1933.74V1883.91H2294.7V1933.74H2244.88ZM2243.82 1934.8H2194.01V1984.63H2243.82V1934.8ZM2244.88 1984.63V1934.8H2294.7V1984.63H2244.88ZM2192.95 1984.63V1934.8H2143.13V1984.63H2192.95ZM2142.07 1984.63V1934.8H2092.26V1984.63H2142.07ZM2091.2 1984.63V1934.8H2041.38V1984.63H2091.2ZM2040.32 1984.63V1934.8H1990.51V1984.63H2040.32ZM1989.45 1984.63V1934.8H1939.63V1984.63H1989.45ZM1938.57 1984.63V1934.8H1888.76V1984.63H1938.57ZM1887.7 1984.63V1934.8H1837.88V1984.63H1887.7ZM1836.82 1984.63V1934.8H1787V1984.63H1836.82ZM1785.94 1984.63V1934.8H1736.13V1984.63H1785.94ZM1735.07 1984.63V1934.8H1685.25V1984.63H1735.07ZM1684.19 1984.63V1934.8H1634.38V1984.63H1684.19ZM1633.32 1984.63V1934.8H1583.5V1984.63H1633.32ZM1582.44 1984.63V1934.8H1532.63V1984.63H1582.44ZM1531.57 1984.63V1934.8H1481.75V1984.63H1531.57ZM1480.69 1984.63V1934.8H1430.88V1984.63H1480.69ZM1429.82 1984.63V1934.8H1380V1984.63H1429.82ZM1378.94 1984.63V1934.8H1329.12V1984.63H1378.94ZM1328.06 1984.63V1934.8H1278.25V1984.63H1328.06ZM1277.19 1984.63V1934.8H1227.37V1984.63H1277.19ZM1226.31 1984.63V1934.8H1176.5V1984.63H1226.31ZM1176.5 1933.74H1226.31V1883.91H1176.5V1933.74ZM1176.5 1882.85H1226.31V1833.03H1176.5V1882.85ZM1176.5 1831.97H1226.31V1782.14H1176.5V1831.97ZM1176.5 1781.08H1226.31V1731.25H1176.5V1781.08ZM1176.5 1730.19H1226.31V1680.36H1176.5V1730.19ZM1176.5 1679.3H1226.31V1629.48H1176.5V1679.3ZM1176.5 1628.41H1226.31V1578.59H1176.5V1628.41ZM1176.5 1577.53H1226.31V1527.7H1176.5V1577.53ZM1176.5 1526.64H1226.31V1476.81H1176.5V1526.64ZM1176.5 1475.75H1226.31V1425.92H1176.5V1475.75ZM1176.5 1424.86H1226.31V1375.04H1176.5V1424.86ZM1176.5 1373.98H1226.31V1324.15H1176.5V1373.98ZM1176.5 1323.09H1226.31V1273.26H1176.5V1323.09ZM1176.5 1272.2H1226.31V1222.37H1176.5V1272.2ZM1176.5 1221.31H1226.31V1171.48H1176.5V1221.31ZM1176.5 1170.42H1226.31V1120.6H1176.5V1170.42ZM1176.5 1119.54H1226.31V1069.71H1176.5V1119.54ZM1176.5 1068.65H1226.31V1018.82H1176.5V1068.65ZM1176.5 1017.76H1226.31V967.932H1176.5V1017.76ZM1176.5 966.871H1226.31V917.044H1176.5V966.871ZM1176.5 915.983H1226.31V866.156H1176.5V915.983ZM1176.5 865.095H1226.31V815.268H1176.5V865.095ZM1176.5 814.207H1226.31V764.38H1176.5V814.207ZM1176.5 763.32H1226.31V713.492H1176.5V763.32ZM1176.5 712.432H1226.31V662.604H1176.5V712.432ZM1176.5 661.544H1226.31V611.716H1176.5V661.544ZM1176.5 610.656H1226.31V560.828H1176.5V610.656ZM1176.5 559.768H1226.31V509.94H1176.5V559.768ZM1176.5 508.88H1226.31V459.052H1176.5V508.88ZM1176.5 457.992H1226.31V408.164H1176.5V457.992ZM1176.5 407.104H1226.31V357.276H1176.5V407.104ZM1176.5 356.216H1226.31V306.388H1176.5V356.216ZM1176.5 305.328H1226.31V255.5H1176.5V305.328ZM1176.5 254.44H1226.31V204.612H1176.5V254.44ZM1176.5 203.552H1226.31V153.724H1176.5V203.552ZM1176.5 152.664H1226.31V102.836H1176.5V152.664ZM1227.37 102.836V152.664H1277.19V102.836H1227.37ZM1278.25 102.836V152.664H1328.06V102.836H1278.25ZM1329.12 102.836V152.664H1378.94V102.836H1329.12ZM1380 102.836V152.664H1429.82V102.836H1380ZM1430.88 102.836V152.664H1480.69V102.836H1430.88ZM1481.75 102.836V152.664H1531.57V102.836H1481.75ZM1532.63 102.836V152.664H1582.44V102.836H1532.63ZM1583.5 102.836V152.664H1633.32V102.836L1583.5 102.836ZM1634.38 102.836V152.664H1684.19V102.836H1634.38ZM1685.25 102.836V152.664H1735.07V102.836H1685.25ZM1736.13 102.836V152.664H1785.94V102.836H1736.13ZM1787 102.836V152.664H1836.82V102.836H1787ZM1837.88 102.836V152.664H1887.7V102.836H1837.88ZM1888.76 102.836V152.664H1938.57V102.836H1888.76ZM1939.63 102.836V152.664H1989.45V102.836H1939.63ZM1990.51 102.836V152.664H2040.32V102.836H1990.51ZM2041.38 102.836V152.664H2091.2V102.836H2041.38ZM2092.26 102.836V152.664H2142.07V102.836H2092.26ZM2143.13 102.836V152.664H2192.95V102.836H2143.13ZM2192.95 153.724H2143.13V203.552H2192.95V153.724ZM2192.95 204.612H2143.13V254.44H2192.95V204.612ZM2192.95 255.5H2143.13V305.328H2192.95V255.5ZM2192.95 306.388H2143.13V356.216H2192.95V306.388ZM2192.95 357.276H2143.13V407.104H2192.95V357.276ZM2192.95 408.164H2143.13V457.992H2192.95V408.164ZM2192.95 459.052H2143.13V508.88H2192.95V459.052ZM2192.95 509.94H2143.13V559.768H2192.95V509.94ZM2192.95 560.828H2143.13V610.656H2192.95V560.828ZM2192.95 611.716H2143.13V661.544H2192.95V611.716ZM2192.95 662.604H2143.13V712.432H2192.95V662.604ZM2192.95 713.492H2143.13V763.32H2192.95V713.492ZM2192.95 764.38H2143.13V814.207H2192.95V764.38ZM2192.95 815.268H2143.13V865.095H2192.95V815.268ZM2192.95 866.156H2143.13V915.983H2192.95V866.156ZM2192.95 917.044H2143.13V966.871H2192.95V917.044ZM2192.95 967.932H2143.13V1017.76H2192.95V967.932ZM2192.95 1018.82H2143.13V1068.65H2192.95V1018.82ZM2192.95 1069.71H2143.13V1119.54H2192.95V1069.71ZM2192.95 1120.6H2143.13V1170.42H2192.95V1120.6ZM2192.95 1171.48H2143.13V1221.31H2192.95V1171.48ZM2192.95 1222.37H2143.13V1272.2H2192.95V1222.37ZM2192.95 1273.26H2143.13V1323.09H2192.95V1273.26ZM2192.95 1324.15H2143.13V1373.98H2192.95V1324.15ZM2192.95 1375.04H2143.13V1424.86H2192.95V1375.04ZM2192.95 1425.92H2143.13V1475.75H2192.95V1425.92ZM2192.95 1476.81H2143.13V1526.64H2192.95V1476.81ZM2192.95 1527.7H2143.13V1577.53H2192.95V1527.7ZM2192.95 1578.59H2143.13V1628.41H2192.95V1578.59ZM2192.95 1629.48H2143.13V1679.3H2192.95V1629.48ZM2192.95 1680.36H2143.13V1730.19H2192.95V1680.36ZM2192.95 1731.25H2143.13V1781.08H2192.95V1731.25ZM2192.95 1782.14H2143.13V1831.97H2192.95V1782.14ZM2192.95 1833.03H2143.13V1882.85H2192.95V1833.03ZM2192.95 1883.91H2143.13V1933.74H2192.95V1883.91ZM2142.07 1933.74V1883.91H2092.26V1933.74H2142.07ZM2091.2 1933.74V1883.91H2041.38V1933.74H2091.2ZM2040.32 1933.74V1883.91H1990.51V1933.74H2040.32ZM1989.45 1933.74V1883.91H1939.63V1933.74H1989.45ZM1938.57 1933.74V1883.91H1888.76V1933.74H1938.57ZM1887.7 1933.74V1883.91H1837.88V1933.74H1887.7ZM1836.82 1933.74V1883.91H1787V1933.74H1836.82ZM1785.94 1933.74V1883.91H1736.13V1933.74H1785.94ZM1735.07 1933.74V1883.91H1685.25V1933.74H1735.07ZM1684.19 1933.74V1883.91H1634.38V1933.74H1684.19ZM1633.32 1933.74V1883.91H1583.5V1933.74H1633.32ZM1582.44 1933.74V1883.91H1532.63V1933.74H1582.44ZM1531.57 1933.74V1883.91H1481.75V1933.74H1531.57ZM1480.69 1933.74V1883.91H1430.88V1933.74H1480.69ZM1429.82 1933.74V1883.91H1380V1933.74H1429.82ZM1378.94 1933.74V1883.91H1329.12V1933.74H1378.94ZM1328.06 1933.74V1883.91H1278.25V1933.74H1328.06ZM1277.19 1933.74V1883.91H1227.37V1933.74H1277.19ZM1227.37 1882.85H1277.19V1833.03H1227.37V1882.85ZM1227.37 1831.97H1277.19V1782.14H1227.37V1831.97ZM1227.37 1781.08H1277.19V1731.25H1227.37V1781.08ZM1227.37 1730.19H1277.19V1680.36H1227.37V1730.19ZM1227.37 1679.3H1277.19V1629.48H1227.37V1679.3ZM1227.37 1628.41H1277.19V1578.59H1227.37V1628.41ZM1227.37 1577.53H1277.19V1527.7H1227.37V1577.53ZM1227.37 1526.64H1277.19V1476.81H1227.37V1526.64ZM1227.37 1475.75H1277.19V1425.92H1227.37V1475.75ZM1227.37 1424.86H1277.19V1375.04H1227.37V1424.86ZM1227.37 1373.98H1277.19V1324.15H1227.37V1373.98ZM1227.37 1323.09H1277.19V1273.26H1227.37V1323.09ZM1227.37 1272.2H1277.19V1222.37H1227.37V1272.2ZM1227.37 1221.31H1277.19V1171.48H1227.37V1221.31ZM1227.37 1170.42H1277.19V1120.6H1227.37V1170.42ZM1227.37 1119.54H1277.19V1069.71H1227.37V1119.54ZM1227.37 1068.65H1277.19V1018.82H1227.37V1068.65ZM1227.37 1017.76H1277.19V967.932H1227.37V1017.76ZM1227.37 966.871H1277.19V917.044H1227.37V966.871ZM1227.37 915.983H1277.19V866.156H1227.37V915.983ZM1227.37 865.095H1277.19V815.268H1227.37V865.095ZM1227.37 814.207H1277.19V764.38H1227.37V814.207ZM1227.37 763.32H1277.19V713.492H1227.37V763.32ZM1227.37 712.432H1277.19V662.604H1227.37V712.432ZM1227.37 661.544H1277.19V611.716H1227.37V661.544ZM1227.37 610.656H1277.19V560.828H1227.37V610.656ZM1227.37 559.768H1277.19V509.94H1227.37V559.768ZM1227.37 508.88H1277.19V459.052H1227.37V508.88ZM1227.37 457.992H1277.19V408.164H1227.37V457.992ZM1227.37 407.104H1277.19V357.276H1227.37V407.104ZM1227.37 356.216H1277.19V306.388H1227.37V356.216ZM1227.37 305.328H1277.19V255.5H1227.37V305.328ZM1227.37 254.44H1277.19V204.612H1227.37V254.44ZM1227.37 203.552H1277.19V153.724H1227.37V203.552ZM1278.25 153.724V203.552H1328.06V153.724H1278.25ZM1329.12 153.724V203.552H1378.94V153.724H1329.12ZM1380 153.724V203.552H1429.82V153.724H1380ZM1430.88 153.724V203.552H1480.69V153.724H1430.88ZM1481.75 153.724V203.552H1531.57V153.724H1481.75ZM1532.63 153.724V203.552H1582.44V153.724H1532.63ZM1583.5 153.724V203.552H1633.32V153.724H1583.5ZM1634.38 153.724V203.552H1684.19V153.724H1634.38ZM1685.25 153.724V203.552H1735.07V153.724H1685.25ZM1736.13 153.724V203.552H1785.94V153.724H1736.13ZM1787 153.724V203.552H1836.82V153.724H1787ZM1837.88 153.724V203.552H1887.7V153.724H1837.88ZM1888.76 153.724V203.552H1938.57V153.724H1888.76ZM1939.63 153.724V203.552H1989.45V153.724H1939.63ZM1990.51 153.724V203.552H2040.32V153.724H1990.51ZM2041.38 153.724V203.552H2091.2V153.724H2041.38ZM2092.26 153.724V203.552H2142.07V153.724H2092.26ZM2142.07 204.612H2092.26V254.44H2142.07V204.612ZM2142.07 255.5H2092.26V305.328H2142.07V255.5ZM2142.07 306.388H2092.26V356.216H2142.07V306.388ZM2142.07 357.276H2092.26V407.104H2142.07V357.276ZM2142.07 408.164H2092.26V457.992H2142.07V408.164ZM2142.07 459.052H2092.26V508.88H2142.07V459.052ZM2142.07 509.94H2092.26V559.768H2142.07V509.94ZM2142.07 560.828H2092.26V610.656H2142.07V560.828ZM2142.07 611.716H2092.26V661.544H2142.07V611.716ZM2142.07 662.604H2092.26V712.432H2142.07V662.604ZM2142.07 713.492H2092.26V763.32H2142.07V713.492ZM2142.07 764.38H2092.26V814.207H2142.07V764.38ZM2142.07 815.268H2092.26V865.095H2142.07V815.268ZM2142.07 866.156H2092.26V915.983H2142.07V866.156ZM2142.07 917.044H2092.26V966.871H2142.07V917.044ZM2142.07 967.932H2092.26V1017.76H2142.07V967.932ZM2142.07 1018.82H2092.26V1068.65H2142.07V1018.82ZM2142.07 1069.71H2092.26V1119.54H2142.07V1069.71ZM2142.07 1120.6H2092.26V1170.42H2142.07V1120.6ZM2142.07 1171.48H2092.26V1221.31H2142.07V1171.48ZM2142.07 1222.37H2092.26V1272.2H2142.07V1222.37ZM2142.07 1273.26H2092.26V1323.09H2142.07V1273.26ZM2142.07 1324.15H2092.26V1373.98H2142.07V1324.15ZM2142.07 1375.04H2092.26V1424.86H2142.07V1375.04ZM2142.07 1425.92H2092.26V1475.75H2142.07V1425.92ZM2142.07 1476.81H2092.26V1526.64H2142.07V1476.81ZM2142.07 1527.7H2092.26V1577.53H2142.07V1527.7ZM2142.07 1578.59H2092.26V1628.41H2142.07V1578.59ZM2142.07 1629.48H2092.26V1679.3H2142.07V1629.48ZM2142.07 1680.36H2092.26V1730.19H2142.07V1680.36ZM2142.07 1731.25H2092.26V1781.08H2142.07V1731.25ZM2142.07 1782.14H2092.26V1831.97H2142.07V1782.14ZM2142.07 1833.03H2092.26V1882.85H2142.07V1833.03ZM2091.2 1882.85V1833.03H2041.38V1882.85H2091.2ZM2040.32 1882.85V1833.03H1990.51V1882.85H2040.32ZM1989.45 1882.85V1833.03H1939.63V1882.85H1989.45ZM1938.57 1882.85V1833.03H1888.76V1882.85H1938.57ZM1887.7 1882.85V1833.03H1837.88V1882.85H1887.7ZM1836.82 1882.85V1833.03H1787V1882.85H1836.82ZM1785.94 1882.85V1833.03H1736.13V1882.85H1785.94ZM1735.07 1882.85V1833.03H1685.25V1882.85H1735.07ZM1684.19 1882.85V1833.03H1634.38V1882.85H1684.19ZM1633.32 1882.85V1833.03H1583.5V1882.85H1633.32ZM1582.44 1882.85V1833.03H1532.63V1882.85H1582.44ZM1531.57 1882.85V1833.03H1481.75V1882.85H1531.57ZM1480.69 1882.85V1833.03H1430.88V1882.85H1480.69ZM1429.82 1882.85V1833.03H1380V1882.85H1429.82ZM1378.94 1882.85V1833.03H1329.12V1882.85H1378.94ZM1328.06 1882.85V1833.03H1278.25V1882.85H1328.06ZM1278.25 1831.97H1328.06V1782.14H1278.25V1831.97ZM1278.25 1781.08H1328.06V1731.25H1278.25V1781.08ZM1278.25 1730.19H1328.06V1680.36H1278.25V1730.19ZM1278.25 1679.3H1328.06V1629.48H1278.25V1679.3ZM1278.25 1628.41H1328.06V1578.59H1278.25V1628.41ZM1278.25 1577.53H1328.06V1527.7H1278.25V1577.53ZM1278.25 1526.64H1328.06V1476.81H1278.25V1526.64ZM1278.25 1475.75H1328.06V1425.92H1278.25V1475.75ZM1278.25 1424.86H1328.06V1375.04H1278.25V1424.86ZM1278.25 1373.98H1328.06V1324.15H1278.25V1373.98ZM1278.25 1323.09H1328.06V1273.26H1278.25V1323.09ZM1278.25 1272.2H1328.06V1222.37H1278.25V1272.2ZM1278.25 1221.31H1328.06V1171.48H1278.25V1221.31ZM1278.25 1170.42H1328.06V1120.6H1278.25V1170.42ZM1278.25 1119.54H1328.06V1069.71H1278.25V1119.54ZM1278.25 1068.65H1328.06V1018.82H1278.25V1068.65ZM1278.25 1017.76H1328.06V967.932H1278.25V1017.76ZM1278.25 966.871H1328.06V917.044H1278.25V966.871ZM1278.25 915.983H1328.06V866.156H1278.25V915.983ZM1278.25 865.095H1328.06V815.268H1278.25V865.095ZM1278.25 814.207H1328.06V764.38H1278.25V814.207ZM1278.25 763.32H1328.06V713.492H1278.25V763.32ZM1278.25 712.432H1328.06V662.604H1278.25V712.432ZM1278.25 661.544H1328.06V611.716H1278.25V661.544ZM1278.25 610.656H1328.06V560.828H1278.25V610.656ZM1278.25 559.768H1328.06V509.94H1278.25V559.768ZM1278.25 508.88H1328.06V459.052H1278.25V508.88ZM1278.25 457.992H1328.06V408.164H1278.25V457.992ZM1278.25 407.104H1328.06V357.276H1278.25V407.104ZM1278.25 356.216H1328.06V306.388H1278.25V356.216ZM1278.25 305.328H1328.06V255.5H1278.25V305.328ZM1278.25 254.44H1328.06V204.612H1278.25V254.44ZM1329.12 204.612V254.44H1378.94V204.612H1329.12ZM1380 204.612V254.44H1429.82V204.612H1380ZM1430.88 204.612V254.44H1480.69V204.612H1430.88ZM1481.75 204.612V254.44H1531.57V204.612H1481.75ZM1532.63 204.612V254.44H1582.44V204.612H1532.63ZM1583.5 204.612V254.44H1633.32V204.612H1583.5ZM1634.38 204.612V254.44H1684.19V204.612H1634.38ZM1685.25 204.612V254.44H1735.07V204.612H1685.25ZM1736.13 204.612V254.44H1785.94V204.612H1736.13ZM1787 204.612V254.44H1836.82V204.612H1787ZM1837.88 204.612V254.44H1887.7V204.612H1837.88ZM1888.76 204.612V254.44H1938.57V204.612H1888.76ZM1939.63 204.612V254.44H1989.45V204.612H1939.63ZM1990.51 204.612V254.44H2040.32V204.612H1990.51ZM2041.38 204.612V254.44H2091.2V204.612H2041.38ZM2091.2 255.5H2041.38V305.328H2091.2V255.5ZM2091.2 306.388H2041.38V356.216H2091.2V306.388ZM2091.2 357.276H2041.38V407.104H2091.2V357.276ZM2091.2 408.164H2041.38V457.992H2091.2V408.164ZM2091.2 459.052H2041.38V508.88H2091.2V459.052ZM2091.2 509.94H2041.38V559.768H2091.2V509.94ZM2091.2 560.828H2041.38V610.656H2091.2V560.828ZM2091.2 611.716H2041.38V661.544H2091.2V611.716ZM2091.2 662.604H2041.38V712.432H2091.2V662.604ZM2091.2 713.492H2041.38V763.32H2091.2V713.492ZM2091.2 764.38H2041.38V814.207H2091.2V764.38ZM2091.2 815.268H2041.38V865.095H2091.2V815.268ZM2091.2 866.156H2041.38V915.983H2091.2V866.156ZM2091.2 917.044H2041.38V966.871H2091.2V917.044ZM2091.2 967.932H2041.38V1017.76H2091.2V967.932ZM2091.2 1018.82H2041.38V1068.65H2091.2V1018.82ZM2091.2 1069.71H2041.38V1119.54H2091.2V1069.71ZM2091.2 1120.6H2041.38V1170.42H2091.2V1120.6ZM2091.2 1171.48H2041.38V1221.31H2091.2V1171.48ZM2091.2 1222.37H2041.38V1272.2H2091.2V1222.37ZM2091.2 1273.26H2041.38V1323.09H2091.2V1273.26ZM2091.2 1324.15H2041.38V1373.98H2091.2V1324.15ZM2091.2 1375.04H2041.38V1424.86H2091.2V1375.04ZM2091.2 1425.92H2041.38V1475.75H2091.2V1425.92ZM2091.2 1476.81H2041.38V1526.64H2091.2V1476.81ZM2091.2 1527.7H2041.38V1577.53H2091.2V1527.7ZM2091.2 1578.59H2041.38V1628.41H2091.2V1578.59ZM2091.2 1629.48H2041.38V1679.3H2091.2V1629.48ZM2091.2 1680.36H2041.38V1730.19H2091.2V1680.36ZM2091.2 1731.25H2041.38V1781.08H2091.2V1731.25ZM2091.2 1782.14H2041.38V1831.97H2091.2V1782.14ZM2040.32 1831.97V1782.14H1990.51V1831.97H2040.32ZM1989.45 1831.97V1782.14H1939.63V1831.97H1989.45ZM1938.57 1831.97V1782.14H1888.76V1831.97H1938.57ZM1887.7 1831.97V1782.14H1837.88V1831.97H1887.7ZM1836.82 1831.97V1782.14H1787V1831.97H1836.82ZM1785.94 1831.97V1782.14H1736.13V1831.97H1785.94ZM1735.07 1831.97V1782.14H1685.25V1831.97H1735.07ZM1684.19 1831.97V1782.14H1634.38V1831.97H1684.19ZM1633.32 1831.97V1782.14H1583.5V1831.97H1633.32ZM1582.44 1831.97V1782.14H1532.63V1831.97H1582.44ZM1531.57 1831.97V1782.14H1481.75V1831.97H1531.57ZM1480.69 1831.97V1782.14H1430.88V1831.97H1480.69ZM1429.82 1831.97V1782.14H1380V1831.97H1429.82ZM1378.94 1831.97V1782.14H1329.12V1831.97H1378.94ZM1329.12 1781.08H1378.94V1731.25H1329.12V1781.08ZM1329.12 1730.19H1378.94V1680.36H1329.12V1730.19ZM1329.12 1679.3H1378.94V1629.48H1329.12V1679.3ZM1329.12 1628.41H1378.94V1578.59H1329.12V1628.41ZM1329.12 1577.53H1378.94V1527.7H1329.12V1577.53ZM1329.12 1526.64H1378.94V1476.81H1329.12V1526.64ZM1329.12 1475.75H1378.94V1425.92H1329.12V1475.75ZM1329.12 1424.86H1378.94V1375.04H1329.12V1424.86ZM1329.12 1373.98H1378.94V1324.15H1329.12V1373.98ZM1329.12 1323.09H1378.94V1273.26H1329.12V1323.09ZM1329.12 1272.2H1378.94V1222.37H1329.12V1272.2ZM1329.12 1221.31H1378.94V1171.48H1329.12V1221.31ZM1329.12 1170.42H1378.94V1120.6H1329.12V1170.42ZM1329.12 1119.54H1378.94V1069.71H1329.12V1119.54ZM1329.12 1068.65H1378.94V1018.82H1329.12V1068.65ZM1329.12 1017.76H1378.94V967.932H1329.12V1017.76ZM1329.12 966.871H1378.94V917.044H1329.12V966.871ZM1329.12 915.983H1378.94V866.156H1329.12V915.983ZM1329.12 865.095H1378.94V815.268H1329.12V865.095ZM1329.12 814.207H1378.94V764.38H1329.12V814.207ZM1329.12 763.32H1378.94V713.492H1329.12V763.32ZM1329.12 712.432H1378.94V662.604H1329.12V712.432ZM1329.12 661.544H1378.94V611.716H1329.12V661.544ZM1329.12 610.656H1378.94V560.828H1329.12V610.656ZM1329.12 559.768H1378.94V509.94H1329.12V559.768ZM1329.12 508.88H1378.94V459.052H1329.12V508.88ZM1329.12 457.992H1378.94V408.164H1329.12V457.992ZM1329.12 407.104H1378.94V357.276H1329.12V407.104ZM1329.12 356.216H1378.94V306.388H1329.12V356.216ZM1329.12 305.328H1378.94V255.5H1329.12V305.328ZM1380 255.5V305.328H1429.82V255.5H1380ZM1430.88 255.5V305.328H1480.69V255.5H1430.88ZM1481.75 255.5V305.328H1531.57V255.5H1481.75ZM1532.63 255.5V305.328H1582.44V255.5H1532.63ZM1583.5 255.5V305.328H1633.32V255.5H1583.5ZM1634.38 255.5V305.328H1684.19V255.5H1634.38ZM1685.25 255.5V305.328H1735.07V255.5H1685.25ZM1736.13 255.5V305.328H1785.94V255.5H1736.13ZM1787 255.5V305.328H1836.82V255.5H1787ZM1837.88 255.5V305.328H1887.7V255.5H1837.88ZM1888.76 255.5V305.328H1938.57V255.5H1888.76ZM1939.63 255.5V305.328H1989.45V255.5H1939.63ZM1990.51 255.5V305.328H2040.32V255.5H1990.51ZM2040.32 306.388H1990.51V356.216H2040.32V306.388ZM2040.32 357.276H1990.51V407.104H2040.32V357.276ZM2040.32 408.164H1990.51V457.992H2040.32V408.164ZM2040.32 459.052H1990.51V508.88H2040.32V459.052ZM2040.32 509.94H1990.51V559.768H2040.32V509.94ZM2040.32 560.828H1990.51V610.656H2040.32V560.828ZM2040.32 611.716H1990.51V661.544H2040.32V611.716ZM2040.32 662.604H1990.51V712.432H2040.32V662.604ZM2040.32 713.492H1990.51V763.32H2040.32V713.492ZM2040.32 764.38H1990.51V814.207H2040.32V764.38ZM2040.32 815.268H1990.51V865.095H2040.32V815.268ZM2040.32 866.156H1990.51V915.983H2040.32V866.156ZM2040.32 917.044H1990.51V966.871H2040.32V917.044ZM2040.32 967.932H1990.51V1017.76H2040.32V967.932ZM2040.32 1018.82H1990.51V1068.65H2040.32V1018.82ZM2040.32 1069.71H1990.51V1119.54H2040.32V1069.71ZM2040.32 1120.6H1990.51V1170.42H2040.32V1120.6ZM2040.32 1171.48H1990.51V1221.31H2040.32V1171.48ZM2040.32 1222.37H1990.51V1272.2H2040.32V1222.37ZM2040.32 1273.26H1990.51V1323.09H2040.32V1273.26ZM2040.32 1324.15H1990.51V1373.98H2040.32V1324.15ZM2040.32 1375.04H1990.51V1424.86H2040.32V1375.04ZM2040.32 1425.92H1990.51V1475.75H2040.32V1425.92ZM2040.32 1476.81H1990.51V1526.64H2040.32V1476.81ZM2040.32 1527.7H1990.51V1577.53H2040.32V1527.7ZM2040.32 1578.59H1990.51V1628.41H2040.32V1578.59ZM2040.32 1629.48H1990.51V1679.3H2040.32V1629.48ZM2040.32 1680.36H1990.51V1730.19H2040.32V1680.36ZM2040.32 1731.25H1990.51V1781.08H2040.32V1731.25ZM1989.45 1781.08V1731.25H1939.63V1781.08H1989.45ZM1938.57 1781.08V1731.25H1888.76V1781.08H1938.57ZM1887.7 1781.08V1731.25H1837.88V1781.08H1887.7ZM1836.82 1781.08V1731.25H1787V1781.08H1836.82ZM1785.94 1781.08V1731.25H1736.13V1781.08H1785.94ZM1735.07 1781.08V1731.25H1685.25V1781.08H1735.07ZM1684.19 1781.08V1731.25H1634.38V1781.08H1684.19ZM1633.32 1781.08V1731.25H1583.5V1781.08H1633.32ZM1582.44 1781.08V1731.25H1532.63V1781.08H1582.44ZM1531.57 1781.08V1731.25H1481.75V1781.08H1531.57ZM1480.69 1781.08V1731.25H1430.88V1781.08H1480.69ZM1429.82 1781.08V1731.25H1380V1781.08H1429.82ZM1380 1730.19H1429.82V1680.36H1380V1730.19ZM1380 1679.3H1429.82V1629.48H1380V1679.3ZM1380 1628.41H1429.82V1578.59H1380V1628.41ZM1380 1577.53H1429.82V1527.7H1380V1577.53ZM1380 1526.64H1429.82V1476.81H1380V1526.64ZM1380 1475.75H1429.82V1425.92H1380V1475.75ZM1380 1424.86H1429.82V1375.04H1380V1424.86ZM1380 1373.98H1429.82V1324.15H1380V1373.98ZM1380 1323.09H1429.82V1273.26H1380V1323.09ZM1380 1272.2H1429.82V1222.37H1380V1272.2ZM1380 1221.31H1429.82V1171.48H1380V1221.31ZM1380 1170.42H1429.82V1120.6H1380V1170.42ZM1380 1119.54H1429.82V1069.71H1380V1119.54ZM1380 1068.65H1429.82V1018.82H1380V1068.65ZM1380 1017.76H1429.82V967.932H1380V1017.76ZM1380 966.871H1429.82V917.044H1380V966.871ZM1380 915.983H1429.82V866.156H1380V915.983ZM1380 865.095H1429.82V815.268H1380V865.095ZM1380 814.207H1429.82V764.38H1380V814.207ZM1380 763.32H1429.82V713.492H1380V763.32ZM1380 712.432H1429.82V662.604H1380V712.432ZM1380 661.544H1429.82V611.716H1380V661.544ZM1380 610.656H1429.82V560.828H1380V610.656ZM1380 559.768H1429.82V509.94H1380V559.768ZM1380 508.88H1429.82V459.052H1380V508.88ZM1380 457.992H1429.82V408.164H1380V457.992ZM1380 407.104H1429.82V357.276H1380V407.104ZM1380 356.216H1429.82V306.388H1380V356.216ZM1430.88 306.388V356.216H1480.69V306.388H1430.88ZM1481.75 306.388V356.216H1531.57V306.388H1481.75ZM1532.63 306.388V356.216H1582.44V306.388H1532.63ZM1583.5 306.388V356.216H1633.32V306.388H1583.5ZM1634.38 306.388V356.216H1684.19V306.388H1634.38ZM1685.25 306.388V356.216H1735.07V306.388H1685.25ZM1736.13 306.388V356.216H1785.94V306.388H1736.13ZM1787 306.388V356.216H1836.82V306.388H1787ZM1837.88 306.388V356.216H1887.7V306.388H1837.88ZM1888.76 306.388V356.216H1938.57V306.388H1888.76ZM1939.63 306.388V356.216H1989.45V306.388H1939.63ZM1989.45 357.276H1939.63V407.104H1989.45V357.276ZM1989.45 408.164H1939.63V457.992H1989.45V408.164ZM1989.45 459.052H1939.63V508.88H1989.45V459.052ZM1989.45 509.94H1939.63V559.768H1989.45V509.94ZM1989.45 560.828H1939.63V610.656H1989.45V560.828ZM1989.45 611.716H1939.63V661.544H1989.45V611.716ZM1989.45 662.604H1939.63V712.432H1989.45V662.604ZM1989.45 713.492H1939.63V763.32H1989.45V713.492ZM1989.45 764.38H1939.63V814.207H1989.45V764.38ZM1989.45 815.268H1939.63V865.095H1989.45V815.268ZM1989.45 866.156H1939.63V915.983H1989.45V866.156ZM1989.45 917.044H1939.63V966.871H1989.45V917.044ZM1989.45 967.932H1939.63V1017.76H1989.45V967.932ZM1989.45 1018.82H1939.63V1068.65H1989.45V1018.82ZM1989.45 1069.71H1939.63V1119.54H1989.45V1069.71ZM1989.45 1120.6H1939.63V1170.42H1989.45V1120.6ZM1989.45 1171.48H1939.63V1221.31H1989.45V1171.48ZM1989.45 1222.37H1939.63V1272.2H1989.45V1222.37ZM1989.45 1273.26H1939.63V1323.09H1989.45V1273.26ZM1989.45 1324.15H1939.63V1373.98H1989.45V1324.15ZM1989.45 1375.04H1939.63V1424.86H1989.45V1375.04ZM1989.45 1425.92H1939.63V1475.75H1989.45V1425.92ZM1989.45 1476.81H1939.63V1526.64H1989.45V1476.81ZM1989.45 1527.7H1939.63V1577.53H1989.45V1527.7ZM1989.45 1578.59H1939.63V1628.41H1989.45V1578.59ZM1989.45 1629.48H1939.63V1679.3H1989.45V1629.48ZM1989.45 1680.36H1939.63V1730.19H1989.45V1680.36ZM1938.57 1730.19V1680.36H1888.76V1730.19H1938.57ZM1887.7 1730.19V1680.36H1837.88V1730.19H1887.7ZM1836.82 1730.19V1680.36H1787V1730.19H1836.82ZM1785.94 1730.19V1680.36H1736.13V1730.19H1785.94ZM1735.07 1730.19V1680.36H1685.25V1730.19H1735.07ZM1684.19 1730.19V1680.36H1634.38V1730.19H1684.19ZM1633.32 1730.19V1680.36H1583.5V1730.19H1633.32ZM1582.44 1730.19V1680.36H1532.63V1730.19H1582.44ZM1531.57 1730.19V1680.36H1481.75V1730.19H1531.57ZM1480.69 1730.19V1680.36H1430.88V1730.19H1480.69ZM1430.88 1679.3H1480.69V1629.48H1430.88V1679.3ZM1430.88 1628.41H1480.69V1578.59H1430.88V1628.41ZM1430.88 1577.53H1480.69V1527.7H1430.88V1577.53ZM1430.88 1526.64H1480.69V1476.81H1430.88V1526.64ZM1430.88 1475.75H1480.69V1425.92H1430.88V1475.75ZM1430.88 1424.86H1480.69V1375.04H1430.88V1424.86ZM1430.88 1373.98H1480.69V1324.15H1430.88V1373.98ZM1430.88 1323.09H1480.69V1273.26H1430.88V1323.09ZM1430.88 1272.2H1480.69V1222.37H1430.88V1272.2ZM1430.88 1221.31H1480.69V1171.48H1430.88V1221.31ZM1430.88 1170.42H1480.69V1120.6H1430.88V1170.42ZM1430.88 1119.54H1480.69V1069.71H1430.88V1119.54ZM1430.88 1068.65H1480.69V1018.82H1430.88V1068.65ZM1430.88 1017.76H1480.69V967.932H1430.88V1017.76ZM1430.88 966.871H1480.69V917.044H1430.88V966.871ZM1430.88 915.983H1480.69V866.156H1430.88V915.983ZM1430.88 865.095H1480.69V815.268H1430.88V865.095ZM1430.88 814.207H1480.69V764.38H1430.88V814.207ZM1430.88 763.32H1480.69V713.492H1430.88V763.32ZM1430.88 712.432H1480.69V662.604H1430.88V712.432ZM1430.88 661.544H1480.69V611.716H1430.88V661.544ZM1430.88 610.656H1480.69V560.828H1430.88V610.656ZM1430.88 559.768H1480.69V509.94H1430.88V559.768ZM1430.88 508.88H1480.69V459.052H1430.88V508.88ZM1430.88 457.992H1480.69V408.164H1430.88V457.992ZM1430.88 407.104H1480.69V357.276H1430.88V407.104ZM1481.75 357.276V407.104H1531.57V357.276H1481.75ZM1532.63 357.276V407.104H1582.44V357.276H1532.63ZM1583.5 357.276V407.104H1633.32V357.276H1583.5ZM1634.38 357.276V407.104H1684.19V357.276H1634.38ZM1685.25 357.276V407.104H1735.07V357.276H1685.25ZM1736.13 357.276V407.104H1785.94V357.276H1736.13ZM1787 357.276V407.104H1836.82V357.276H1787ZM1837.88 357.276V407.104H1887.7V357.276H1837.88ZM1888.76 357.276V407.104H1938.57V357.276H1888.76ZM1938.57 408.164H1888.76V457.992H1938.57V408.164ZM1938.57 459.052H1888.76V508.88H1938.57V459.052ZM1938.57 509.94H1888.76V559.768H1938.57V509.94ZM1938.57 560.828H1888.76V610.656H1938.57V560.828ZM1938.57 611.716H1888.76V661.544H1938.57V611.716ZM1938.57 662.604H1888.76V712.432H1938.57V662.604ZM1938.57 713.492H1888.76V763.32H1938.57V713.492ZM1938.57 764.38H1888.76V814.207H1938.57V764.38ZM1938.57 815.268H1888.76V865.095H1938.57V815.268ZM1938.57 866.156H1888.76V915.983H1938.57V866.156ZM1938.57 917.044H1888.76V966.871H1938.57V917.044ZM1938.57 967.932H1888.76V1017.76H1938.57V967.932ZM1938.57 1018.82H1888.76V1068.65H1938.57V1018.82ZM1938.57 1069.71H1888.76V1119.54H1938.57V1069.71ZM1938.57 1120.6H1888.76V1170.42H1938.57V1120.6ZM1938.57 1171.48H1888.76V1221.31H1938.57V1171.48ZM1938.57 1222.37H1888.76V1272.2H1938.57V1222.37ZM1938.57 1273.26H1888.76V1323.09H1938.57V1273.26ZM1938.57 1324.15H1888.76V1373.98H1938.57V1324.15ZM1938.57 1375.04H1888.76V1424.86H1938.57V1375.04ZM1938.57 1425.92H1888.76V1475.75H1938.57V1425.92ZM1938.57 1476.81H1888.76V1526.64H1938.57V1476.81ZM1938.57 1527.7H1888.76V1577.53H1938.57V1527.7ZM1938.57 1578.59H1888.76V1628.41H1938.57V1578.59ZM1938.57 1629.48H1888.76V1679.3H1938.57V1629.48ZM1887.7 1679.3V1629.48H1837.88V1679.3H1887.7ZM1836.82 1679.3V1629.48H1787V1679.3H1836.82ZM1785.94 1679.3V1629.48H1736.13V1679.3H1785.94ZM1735.07 1679.3V1629.48H1685.25V1679.3H1735.07ZM1684.19 1679.3V1629.48H1634.38V1679.3H1684.19ZM1633.32 1679.3V1629.48H1583.5V1679.3H1633.32ZM1582.44 1679.3V1629.48H1532.63V1679.3H1582.44ZM1531.57 1679.3V1629.48H1481.75V1679.3H1531.57ZM1481.75 1628.41H1531.57V1578.59H1481.75V1628.41ZM1481.75 1577.53H1531.57V1527.7H1481.75V1577.53ZM1481.75 1526.64H1531.57V1476.81H1481.75V1526.64ZM1481.75 1475.75H1531.57V1425.92H1481.75V1475.75ZM1481.75 1424.86H1531.57V1375.04H1481.75V1424.86ZM1481.75 1373.98H1531.57V1324.15H1481.75V1373.98ZM1481.75 1323.09H1531.57V1273.26H1481.75V1323.09ZM1481.75 1272.2H1531.57V1222.37H1481.75V1272.2ZM1481.75 1221.31H1531.57V1171.48H1481.75V1221.31ZM1481.75 1170.42H1531.57V1120.6H1481.75V1170.42ZM1481.75 1119.54H1531.57V1069.71H1481.75V1119.54ZM1481.75 1068.65H1531.57V1018.82H1481.75V1068.65ZM1481.75 1017.76H1531.57V967.932H1481.75V1017.76ZM1481.75 966.871H1531.57V917.044H1481.75V966.871ZM1481.75 915.983H1531.57V866.156H1481.75V915.983ZM1481.75 865.095H1531.57V815.268H1481.75V865.095ZM1481.75 814.207H1531.57V764.38H1481.75V814.207ZM1481.75 763.32H1531.57V713.492H1481.75V763.32ZM1481.75 712.432H1531.57V662.604H1481.75V712.432ZM1481.75 661.544H1531.57V611.716H1481.75V661.544ZM1481.75 610.656H1531.57V560.828H1481.75V610.656ZM1481.75 559.768H1531.57V509.94H1481.75V559.768ZM1481.75 508.88H1531.57V459.052H1481.75V508.88ZM1481.75 457.992H1531.57V408.164H1481.75V457.992ZM1532.63 408.164V457.992H1582.44V408.164H1532.63ZM1583.5 408.164V457.992H1633.32V408.164H1583.5ZM1634.38 408.164V457.992H1684.19V408.164H1634.38ZM1685.25 408.164V457.992H1735.07V408.164H1685.25ZM1736.13 408.164V457.992H1785.94V408.164H1736.13ZM1787 408.164V457.992H1836.82V408.164H1787ZM1837.88 408.164V457.992H1887.7V408.164H1837.88ZM1887.7 459.052H1837.88V508.88H1887.7V459.052ZM1887.7 509.94H1837.88V559.768H1887.7V509.94ZM1887.7 560.828H1837.88V610.656H1887.7V560.828ZM1887.7 611.716H1837.88V661.544H1887.7V611.716ZM1887.7 662.604H1837.88V712.432H1887.7V662.604ZM1887.7 713.492H1837.88V763.32H1887.7V713.492ZM1887.7 764.38H1837.88V814.207H1887.7V764.38ZM1887.7 815.268H1837.88V865.095H1887.7V815.268ZM1887.7 866.156H1837.88V915.983H1887.7V866.156ZM1887.7 917.044H1837.88V966.871H1887.7V917.044ZM1887.7 967.932H1837.88V1017.76H1887.7V967.932ZM1887.7 1018.82H1837.88V1068.65H1887.7V1018.82ZM1887.7 1069.71H1837.88V1119.54H1887.7V1069.71ZM1887.7 1120.6H1837.88V1170.42H1887.7V1120.6ZM1887.7 1171.48H1837.88V1221.31H1887.7V1171.48ZM1887.7 1222.37H1837.88V1272.2H1887.7V1222.37ZM1887.7 1273.26H1837.88V1323.09H1887.7V1273.26ZM1887.7 1324.15H1837.88V1373.98H1887.7V1324.15ZM1887.7 1375.04H1837.88V1424.86H1887.7V1375.04ZM1887.7 1425.92H1837.88V1475.75H1887.7V1425.92ZM1887.7 1476.81H1837.88V1526.64H1887.7V1476.81ZM1887.7 1527.7H1837.88V1577.53H1887.7V1527.7ZM1887.7 1578.59H1837.88V1628.41H1887.7V1578.59ZM1836.82 1628.41V1578.59H1787V1628.41H1836.82ZM1785.94 1628.41V1578.59H1736.13V1628.41H1785.94ZM1735.07 1628.41V1578.59H1685.25V1628.41H1735.07ZM1684.19 1628.41V1578.59H1634.38V1628.41H1684.19ZM1633.32 1628.41V1578.59H1583.5V1628.41H1633.32ZM1582.44 1628.41V1578.59H1532.63V1628.41H1582.44ZM1532.63 1577.53H1582.44V1527.7H1532.63V1577.53ZM1532.63 1526.64H1582.44V1476.81H1532.63V1526.64ZM1532.63 1475.75H1582.44V1425.92H1532.63V1475.75ZM1532.63 1424.86H1582.44V1375.04H1532.63V1424.86ZM1532.63 1373.98H1582.44V1324.15H1532.63V1373.98ZM1532.63 1323.09H1582.44V1273.26H1532.63V1323.09ZM1532.63 1272.2H1582.44V1222.37H1532.63V1272.2ZM1532.63 1221.31H1582.44V1171.48H1532.63V1221.31ZM1532.63 1170.42H1582.44V1120.6H1532.63V1170.42ZM1532.63 1119.54H1582.44V1069.71H1532.63V1119.54ZM1532.63 1068.65H1582.44V1018.82H1532.63V1068.65ZM1532.63 1017.76H1582.44V967.932H1532.63V1017.76ZM1532.63 966.871H1582.44V917.044H1532.63V966.871ZM1532.63 915.983H1582.44V866.156H1532.63V915.983ZM1532.63 865.095H1582.44V815.268H1532.63V865.095ZM1532.63 814.207H1582.44V764.38H1532.63V814.207ZM1532.63 763.32H1582.44V713.492H1532.63V763.32ZM1532.63 712.432H1582.44V662.604H1532.63V712.432ZM1532.63 661.544H1582.44V611.716H1532.63V661.544ZM1532.63 610.656H1582.44V560.828H1532.63V610.656ZM1532.63 559.768H1582.44V509.94H1532.63V559.768ZM1532.63 508.88H1582.44V459.052H1532.63V508.88ZM1583.5 459.052V508.88H1633.32V459.052H1583.5ZM1634.38 459.052V508.88H1684.19V459.052H1634.38ZM1685.25 459.052V508.88H1735.07V459.052H1685.25ZM1736.13 459.052V508.88H1785.94V459.052H1736.13ZM1787 459.052V508.88H1836.82V459.052H1787ZM1836.82 509.94H1787V559.768H1836.82V509.94ZM1836.82 560.828H1787V610.656H1836.82V560.828ZM1836.82 611.716H1787V661.544H1836.82V611.716ZM1836.82 662.604H1787V712.432H1836.82V662.604ZM1836.82 713.492H1787V763.32H1836.82V713.492ZM1836.82 764.38H1787V814.207H1836.82V764.38ZM1836.82 815.268H1787V865.095H1836.82V815.268ZM1836.82 866.156H1787V915.983H1836.82V866.156ZM1836.82 917.044H1787V966.871H1836.82V917.044ZM1836.82 967.932H1787V1017.76H1836.82V967.932ZM1836.82 1018.82H1787V1068.65H1836.82V1018.82ZM1836.82 1069.71H1787V1119.54H1836.82V1069.71ZM1836.82 1120.6H1787V1170.42H1836.82V1120.6ZM1836.82 1171.48H1787V1221.31H1836.82V1171.48ZM1836.82 1222.37H1787V1272.2H1836.82V1222.37ZM1836.82 1273.26H1787V1323.09H1836.82V1273.26ZM1836.82 1324.15H1787V1373.98H1836.82V1324.15ZM1836.82 1375.04H1787V1424.86H1836.82V1375.04ZM1836.82 1425.92H1787V1475.75H1836.82V1425.92ZM1836.82 1476.81H1787V1526.64H1836.82V1476.81ZM1836.82 1527.7H1787V1577.53H1836.82V1527.7ZM1785.94 1577.53V1527.7H1736.13V1577.53H1785.94ZM1735.07 1577.53V1527.7H1685.25V1577.53H1735.07ZM1684.19 1577.53V1527.7H1634.38V1577.53H1684.19ZM1633.32 1577.53V1527.7H1583.5V1577.53H1633.32ZM1583.5 1526.64H1633.32V1476.81H1583.5V1526.64ZM1583.5 1475.75H1633.32V1425.92H1583.5V1475.75ZM1583.5 1424.86H1633.32V1375.04H1583.5V1424.86ZM1583.5 1373.98H1633.32V1324.15H1583.5V1373.98ZM1583.5 1323.09H1633.32V1273.26H1583.5V1323.09ZM1583.5 1272.2H1633.32V1222.37H1583.5V1272.2ZM1583.5 1221.31H1633.32V1171.48H1583.5V1221.31ZM1583.5 1170.42H1633.32V1120.6H1583.5V1170.42ZM1583.5 1119.54H1633.32V1069.71H1583.5V1119.54ZM1583.5 1068.65H1633.32V1018.82H1583.5V1068.65ZM1583.5 1017.76H1633.32V967.932H1583.5V1017.76ZM1583.5 966.871H1633.32V917.044H1583.5V966.871ZM1583.5 915.983H1633.32V866.156H1583.5V915.983ZM1583.5 865.095H1633.32V815.268H1583.5V865.095ZM1583.5 814.207H1633.32V764.38H1583.5V814.207ZM1583.5 763.32H1633.32V713.492H1583.5V763.32ZM1583.5 712.432H1633.32V662.604H1583.5V712.432ZM1583.5 661.544H1633.32V611.716H1583.5V661.544ZM1583.5 610.656H1633.32V560.828H1583.5V610.656ZM1583.5 559.768H1633.32V509.94H1583.5V559.768ZM1634.38 509.94V559.768H1684.19V509.94H1634.38ZM1685.25 509.94V559.768H1735.07V509.94H1685.25ZM1736.13 509.94V559.768H1785.94V509.94H1736.13ZM1785.94 560.828H1736.13V610.656H1785.94V560.828ZM1785.94 611.716H1736.13V661.544H1785.94V611.716ZM1785.94 662.604H1736.13V712.432H1785.94V662.604ZM1785.94 713.492H1736.13V763.32H1785.94V713.492ZM1785.94 764.38H1736.13V814.207H1785.94V764.38ZM1785.94 815.268H1736.13V865.095H1785.94V815.268ZM1785.94 866.156H1736.13V915.983H1785.94V866.156ZM1785.94 917.044H1736.13V966.871H1785.94V917.044ZM1785.94 967.932H1736.13V1017.76H1785.94V967.932ZM1785.94 1018.82H1736.13V1068.65H1785.94V1018.82ZM1785.94 1069.71H1736.13V1119.54H1785.94V1069.71ZM1785.94 1120.6H1736.13V1170.42H1785.94V1120.6ZM1785.94 1171.48H1736.13V1221.31H1785.94V1171.48ZM1785.94 1222.37H1736.13V1272.2H1785.94V1222.37ZM1785.94 1273.26H1736.13V1323.09H1785.94V1273.26ZM1785.94 1324.15H1736.13V1373.98H1785.94V1324.15ZM1785.94 1375.04H1736.13V1424.86H1785.94V1375.04ZM1785.94 1425.92H1736.13V1475.75H1785.94V1425.92ZM1785.94 1476.81H1736.13V1526.64H1785.94V1476.81ZM1735.07 1526.64V1476.81H1685.25V1526.64H1735.07ZM1684.19 1526.64V1476.81H1634.38V1526.64H1684.19ZM1634.38 1475.75H1684.19V1425.92H1634.38V1475.75ZM1634.38 1424.86H1684.19V1375.04H1634.38V1424.86ZM1634.38 1373.98H1684.19V1324.15H1634.38V1373.98ZM1634.38 1323.09H1684.19V1273.26H1634.38V1323.09ZM1634.38 1272.2H1684.19V1222.37H1634.38V1272.2ZM1634.38 1221.31H1684.19V1171.48H1634.38V1221.31ZM1634.38 1170.42H1684.19V1120.6H1634.38V1170.42ZM1634.38 1119.54H1684.19V1069.71H1634.38V1119.54ZM1634.38 1068.65H1684.19V1018.82H1634.38V1068.65ZM1634.38 1017.76H1684.19V967.932H1634.38V1017.76ZM1634.38 966.871H1684.19V917.044H1634.38V966.871ZM1634.38 915.983H1684.19V866.156H1634.38V915.983ZM1634.38 865.095H1684.19V815.268H1634.38V865.095ZM1634.38 814.207H1684.19V764.38H1634.38V814.207ZM1634.38 763.32H1684.19V713.492H1634.38V763.32ZM1634.38 712.432H1684.19V662.604H1634.38V712.432ZM1634.38 661.544H1684.19V611.716H1634.38V661.544ZM1634.38 610.656H1684.19V560.828H1634.38V610.656ZM1685.25 560.828V610.656H1735.07V560.828H1685.25ZM1735.07 611.716H1685.25V661.544H1735.07V611.716ZM1735.07 662.604H1685.25V712.432H1735.07V662.604ZM1735.07 713.492H1685.25V763.32H1735.07V713.492ZM1735.07 764.38H1685.25V814.207H1735.07V764.38ZM1735.07 815.268H1685.25V865.095H1735.07V815.268ZM1735.07 866.156H1685.25V915.983H1735.07V866.156ZM1735.07 917.044H1685.25V966.871H1735.07V917.044ZM1735.07 967.932H1685.25V1017.76H1735.07V967.932ZM1735.07 1018.82H1685.25V1068.65H1735.07V1018.82ZM1735.07 1069.71H1685.25V1119.54H1735.07V1069.71ZM1735.07 1120.6H1685.25V1170.42H1735.07V1120.6ZM1735.07 1171.48H1685.25V1221.31H1735.07V1171.48ZM1735.07 1222.37H1685.25V1272.2H1735.07V1222.37ZM1735.07 1273.26H1685.25V1323.09H1735.07V1273.26ZM1735.07 1324.15H1685.25V1373.98H1735.07V1324.15ZM1735.07 1375.04H1685.25V1424.86H1735.07V1375.04ZM1735.07 1425.92H1685.25V1475.75H1735.07V1425.92Z" fill="url(#paint0_linear_257_49)"/>
<path fill-rule="evenodd" clip-rule="evenodd" d="M1124.56 2035.52V0H1123.5V50.8879H1073.69V0H1072.63V50.8879H1022.81V0H1021.75V50.8879H971.936V0H970.876V50.8879H921.06V0H920V50.8879H870.185V0H869.125V50.8879H819.309V0H818.249V50.8879H768.433V0H767.373V50.8879H717.558V0H716.498V50.8879L666.682 50.888V0H665.622V50.888H615.807V0H614.747V50.888H564.931V0H563.871V50.888H514.055V0H512.996V50.888H463.18V0H462.12V50.888H412.304V0H411.244V50.888H361.429V0H360.369V50.888H310.553V0H309.493V50.888H259.678V0H258.618V50.888H208.802V0H207.742V50.888H157.926V0H156.866V50.888H107.051V0H105.991V50.888H56.1752V0H55.1153V50.888H5.29965V0H4.23975V2035.52H5.29965V1985.69H55.1153V2035.52H56.1752V1985.69H105.991V2035.52H107.051V1985.69H156.866V2035.52H157.926V1985.69H207.742V2035.52H208.802V1985.69H258.618V2035.52H259.678V1985.69H309.493V2035.52H310.553V1985.69H360.369V2035.52H361.429V1985.69H411.244V2035.52H412.304V1985.69H462.12V2035.52H463.18V1985.69H512.996V2035.52H514.055V1985.69H563.871V2035.52H564.931V1985.69H614.747V2035.52H615.807V1985.69H665.622V2035.52H666.682V1985.69H716.498V2035.52H717.558V1985.69H767.373V2035.52H768.433V1985.69H818.249V2035.52H819.309V1985.69H869.125V2035.52H870.185V1985.69H920V2035.52H921.06V1985.69H970.876V2035.52H971.936V1985.69H1021.75V2035.52H1022.81V1985.69H1072.63V2035.52H1073.69V1985.69H1123.5V2035.52H1124.56ZM1123.5 1984.63H1073.69V1934.8H1123.5V1984.63ZM1123.5 1933.74H1073.69V1883.91H1123.5V1933.74ZM1123.5 1882.85H1073.69V1833.03H1123.5V1882.85ZM1123.5 1831.97H1073.69V1782.14H1123.5V1831.97ZM1123.5 1781.08H1073.69V1731.25H1123.5V1781.08ZM1123.5 1730.19H1073.69V1680.36H1123.5V1730.19ZM1123.5 1679.3H1073.69V1629.48H1123.5V1679.3ZM1123.5 1628.41H1073.69V1578.59H1123.5V1628.41ZM1123.5 1577.53H1073.69V1527.7H1123.5V1577.53ZM1123.5 1526.64H1073.69V1476.81H1123.5V1526.64ZM1123.5 1475.75H1073.69V1425.92H1123.5V1475.75ZM1123.5 1424.86H1073.69V1375.04H1123.5V1424.86ZM1123.5 1373.98H1073.69V1324.15H1123.5V1373.98ZM1123.5 1323.09H1073.69V1273.26H1123.5V1323.09ZM1123.5 1272.2H1073.69V1222.37H1123.5V1272.2ZM1123.5 1221.31H1073.69V1171.48H1123.5V1221.31ZM1123.5 1170.42H1073.69V1120.6H1123.5V1170.42ZM1123.5 1119.54H1073.69V1069.71H1123.5V1119.54ZM1123.5 1068.65H1073.69V1018.82H1123.5V1068.65ZM1123.5 1017.76H1073.69V967.932H1123.5V1017.76ZM1123.5 966.871H1073.69V917.044H1123.5V966.871ZM1123.5 915.983H1073.69V866.156H1123.5V915.983ZM1123.5 865.095H1073.69V815.268H1123.5V865.095ZM1123.5 814.207H1073.69V764.38H1123.5V814.207ZM1123.5 763.32H1073.69V713.492H1123.5V763.32ZM1123.5 712.432H1073.69V662.604H1123.5V712.432ZM1123.5 661.544H1073.69V611.716H1123.5V661.544ZM1123.5 610.656H1073.69V560.828H1123.5V610.656ZM1123.5 559.768H1073.69V509.94H1123.5V559.768ZM1123.5 508.88H1073.69V459.052H1123.5V508.88ZM1123.5 457.992H1073.69V408.164H1123.5V457.992ZM1123.5 407.104H1073.69V357.276H1123.5V407.104ZM1123.5 356.216H1073.69V306.388H1123.5V356.216ZM1123.5 305.328H1073.69V255.5H1123.5V305.328ZM1123.5 254.44H1073.69V204.612H1123.5V254.44ZM1123.5 203.552H1073.69V153.724H1123.5V203.552ZM1123.5 152.664H1073.69V102.836H1123.5V152.664ZM1123.5 101.776H1073.69V51.948H1123.5V101.776ZM1072.63 51.948V101.776H1022.81V51.948H1072.63ZM1021.75 51.948V101.776H971.936V51.948H1021.75ZM970.876 51.948V101.776H921.06V51.948H970.876ZM920 51.948V101.776H870.185V51.948H920ZM869.125 51.948V101.776H819.309V51.948H869.125ZM818.249 51.948V101.776H768.433V51.948H818.249ZM767.373 51.948V101.776H717.558V51.948H767.373ZM716.498 51.948V101.776H666.682V51.9481L716.498 51.948ZM665.622 51.9481V101.776H615.807V51.9481H665.622ZM614.747 51.9481V101.776H564.931V51.9481H614.747ZM563.871 51.9481V101.776H514.055V51.9481H563.871ZM512.996 51.9481V101.776H463.18V51.9481H512.996ZM462.12 51.9481V101.776H412.304V51.9481H462.12ZM411.244 51.9481V101.776H361.429V51.9481H411.244ZM360.369 51.9481V101.776H310.553V51.9481H360.369ZM309.493 51.9481V101.776H259.678V51.9481H309.493ZM258.618 51.9481V101.776H208.802V51.9481H258.618ZM207.742 51.9481V101.776H157.926V51.9481H207.742ZM156.866 51.9481V101.776H107.051V51.9481H156.866ZM105.991 51.9481V101.776H56.1752V51.9481H105.991ZM55.1153 51.9481V101.776H5.29965V51.9481H55.1153ZM56.1752 102.836H105.991V152.664H56.1752V102.836ZM55.1153 152.664V102.836H5.29965V152.664H55.1153ZM56.1752 153.724H105.991V203.552H56.1752V153.724ZM55.1153 203.552V153.724H5.29965V203.552H55.1153ZM56.1752 204.612H105.991V254.44H56.1752V204.612ZM55.1153 254.44V204.612H5.29965V254.44H55.1153ZM56.1752 255.5H105.991V305.328H56.1752V255.5ZM55.1153 305.328V255.5H5.29965V305.328H55.1153ZM56.1752 306.388H105.991V356.216H56.1752V306.388ZM55.1153 356.216V306.388H5.29965V356.216H55.1153ZM56.1752 357.276H105.991V407.104H56.1752V357.276ZM55.1153 407.104V357.276H5.29965V407.104H55.1153ZM56.1752 408.164H105.991V457.992H56.1752V408.164ZM55.1153 457.992V408.164H5.29965V457.992H55.1153ZM56.1752 459.052H105.991V508.88H56.1752V459.052ZM55.1153 508.88V459.052H5.29965V508.88H55.1153ZM56.1752 509.94H105.991V559.768H56.1752V509.94ZM55.1153 559.768V509.94H5.29965V559.768H55.1153ZM56.1752 560.828H105.991V610.656H56.1752V560.828ZM55.1153 610.656V560.828H5.29965V610.656H55.1153ZM56.1752 611.716H105.991V661.544H56.1752V611.716ZM55.1153 661.544V611.716H5.29965V661.544H55.1153ZM56.1752 662.604H105.991V712.432H56.1752V662.604ZM55.1153 712.432V662.604H5.29965V712.432H55.1153ZM56.1752 713.492H105.991V763.32H56.1752V713.492ZM55.1153 763.32V713.492H5.29965V763.32H55.1153ZM56.1752 764.38H105.991V814.207H56.1752V764.38ZM55.1153 814.207V764.38H5.29965V814.207H55.1153ZM56.1752 815.268H105.991V865.095H56.1752V815.268ZM55.1153 865.095V815.268H5.29965V865.095H55.1153ZM56.1752 866.156H105.991V915.983H56.1752V866.156ZM55.1153 915.983V866.156H5.29965V915.983H55.1153ZM56.1752 917.044H105.991V966.871H56.1752V917.044ZM55.1153 966.871V917.044H5.29965V966.871H55.1153ZM56.1752 967.932H105.991V1017.76H56.1752V967.932ZM55.1153 1017.76V967.932H5.29965V1017.76H55.1153ZM56.1752 1018.82H105.991V1068.65H56.1752V1018.82ZM55.1153 1068.65V1018.82H5.29965V1068.65H55.1153ZM56.1752 1069.71H105.991V1119.54H56.1752V1069.71ZM55.1153 1119.54V1069.71H5.29965V1119.54H55.1153ZM56.1752 1120.6H105.991V1170.42H56.1752V1120.6ZM55.1153 1170.42V1120.6H5.29965V1170.42H55.1153ZM56.1752 1171.48H105.991V1221.31H56.1752V1171.48ZM55.1153 1221.31V1171.48H5.29965V1221.31H55.1153ZM56.1752 1222.37H105.991V1272.2H56.1752V1222.37ZM55.1153 1272.2V1222.37H5.29965V1272.2H55.1153ZM56.1752 1273.26H105.991V1323.09H56.1752V1273.26ZM55.1153 1323.09V1273.26H5.29965V1323.09H55.1153ZM56.1752 1324.15H105.991V1373.98H56.1752V1324.15ZM55.1153 1373.98V1324.15H5.29965V1373.98H55.1153ZM56.1752 1375.04H105.991V1424.86H56.1752V1375.04ZM55.1153 1424.86V1375.04H5.29965V1424.86H55.1153ZM56.1752 1425.92H105.991V1475.75H56.1752V1425.92ZM55.1153 1475.75V1425.92H5.29965V1475.75H55.1153ZM56.1752 1476.81H105.991V1526.64H56.1752V1476.81ZM55.1153 1526.64V1476.81H5.29965V1526.64H55.1153ZM56.1752 1527.7H105.991V1577.53H56.1752V1527.7ZM55.1153 1577.53V1527.7H5.29965V1577.53H55.1153ZM56.1752 1578.59H105.991V1628.41H56.1752V1578.59ZM55.1153 1628.41V1578.59H5.29965V1628.41H55.1153ZM56.1752 1629.48H105.991V1679.3H56.1752V1629.48ZM55.1153 1679.3V1629.48H5.29965V1679.3H55.1153ZM56.1752 1680.36H105.991V1730.19H56.1752V1680.36ZM55.1153 1730.19V1680.36H5.29965V1730.19H55.1153ZM56.1752 1731.25H105.991V1781.08H56.1752V1731.25ZM55.1153 1781.08V1731.25H5.29965V1781.08H55.1153ZM56.1752 1782.14H105.991V1831.97H56.1752V1782.14ZM55.1153 1831.97V1782.14H5.29965V1831.97H55.1153ZM56.1752 1833.03H105.991V1882.85H56.1752V1833.03ZM55.1153 1882.85V1833.03H5.29965V1882.85H55.1153ZM56.1752 1883.91H105.991V1933.74H56.1752V1883.91ZM55.1153 1933.74V1883.91H5.29965V1933.74H55.1153ZM56.1752 1934.8H105.991V1984.63H56.1752V1934.8ZM55.1153 1984.63V1934.8H5.29965V1984.63H55.1153ZM107.051 1984.63V1934.8H156.866V1984.63H107.051ZM157.926 1984.63V1934.8H207.742V1984.63H157.926ZM208.802 1984.63V1934.8H258.618V1984.63H208.802ZM259.678 1984.63V1934.8H309.493V1984.63H259.678ZM310.553 1984.63V1934.8H360.369V1984.63H310.553ZM361.429 1984.63V1934.8H411.244V1984.63H361.429ZM412.304 1984.63V1934.8H462.12V1984.63H412.304ZM463.18 1984.63V1934.8H512.996V1984.63H463.18ZM514.055 1984.63V1934.8H563.871V1984.63H514.055ZM564.931 1984.63V1934.8H614.747V1984.63H564.931ZM615.807 1984.63V1934.8H665.622V1984.63H615.807ZM666.682 1984.63V1934.8H716.498V1984.63H666.682ZM717.558 1984.63V1934.8H767.373V1984.63H717.558ZM768.433 1984.63V1934.8H818.249V1984.63H768.433ZM819.309 1984.63V1934.8H869.125V1984.63H819.309ZM870.185 1984.63V1934.8H920V1984.63H870.185ZM921.06 1984.63V1934.8H970.876V1984.63H921.06ZM971.936 1984.63V1934.8H1021.75V1984.63H971.936ZM1022.81 1984.63V1934.8H1072.63V1984.63H1022.81ZM1072.63 1933.74H1022.81V1883.91H1072.63V1933.74ZM1072.63 1882.85H1022.81V1833.03H1072.63V1882.85ZM1072.63 1831.97H1022.81V1782.14H1072.63V1831.97ZM1072.63 1781.08H1022.81V1731.25H1072.63V1781.08ZM1072.63 1730.19H1022.81V1680.36H1072.63V1730.19ZM1072.63 1679.3H1022.81V1629.48H1072.63V1679.3ZM1072.63 1628.41H1022.81V1578.59H1072.63V1628.41ZM1072.63 1577.53H1022.81V1527.7H1072.63V1577.53ZM1072.63 1526.64H1022.81V1476.81H1072.63V1526.64ZM1072.63 1475.75H1022.81V1425.92H1072.63V1475.75ZM1072.63 1424.86H1022.81V1375.04H1072.63V1424.86ZM1072.63 1373.98H1022.81V1324.15H1072.63V1373.98ZM1072.63 1323.09H1022.81V1273.26H1072.63V1323.09ZM1072.63 1272.2H1022.81V1222.37H1072.63V1272.2ZM1072.63 1221.31H1022.81V1171.48H1072.63V1221.31ZM1072.63 1170.42H1022.81V1120.6H1072.63V1170.42ZM1072.63 1119.54H1022.81V1069.71H1072.63V1119.54ZM1072.63 1068.65H1022.81V1018.82H1072.63V1068.65ZM1072.63 1017.76H1022.81V967.932H1072.63V1017.76ZM1072.63 966.871H1022.81V917.044H1072.63V966.871ZM1072.63 915.983H1022.81V866.156H1072.63V915.983ZM1072.63 865.095H1022.81V815.268H1072.63V865.095ZM1072.63 814.207H1022.81V764.38H1072.63V814.207ZM1072.63 763.32H1022.81V713.492H1072.63V763.32ZM1072.63 712.432H1022.81V662.604H1072.63V712.432ZM1072.63 661.544H1022.81V611.716H1072.63V661.544ZM1072.63 610.656H1022.81V560.828H1072.63V610.656ZM1072.63 559.768H1022.81V509.94H1072.63V559.768ZM1072.63 508.88H1022.81V459.052H1072.63V508.88ZM1072.63 457.992H1022.81V408.164H1072.63V457.992ZM1072.63 407.104H1022.81V357.276H1072.63V407.104ZM1072.63 356.216H1022.81V306.388H1072.63V356.216ZM1072.63 305.328H1022.81V255.5H1072.63V305.328ZM1072.63 254.44H1022.81V204.612H1072.63V254.44ZM1072.63 203.552H1022.81V153.724H1072.63V203.552ZM1072.63 152.664H1022.81V102.836H1072.63V152.664ZM1021.75 102.836V152.664H971.936V102.836H1021.75ZM970.876 102.836V152.664H921.06V102.836H970.876ZM920 102.836V152.664H870.185V102.836H920ZM869.125 102.836V152.664H819.309V102.836H869.125ZM818.249 102.836V152.664H768.433V102.836H818.249ZM767.373 102.836V152.664H717.558V102.836H767.373ZM716.498 102.836V152.664H666.682V102.836H716.498ZM665.622 102.836V152.664H615.807V102.836H665.622ZM614.747 102.836V152.664H564.931V102.836H614.747ZM563.871 102.836V152.664H514.055V102.836H563.871ZM512.996 102.836V152.664H463.18V102.836H512.996ZM462.12 102.836V152.664H412.304V102.836H462.12ZM411.244 102.836V152.664H361.429V102.836H411.244ZM360.369 102.836V152.664H310.553V102.836H360.369ZM309.493 102.836V152.664H259.678V102.836H309.493ZM258.618 102.836V152.664H208.802V102.836H258.618ZM207.742 102.836V152.664H157.926V102.836H207.742ZM156.866 102.836V152.664H107.051V102.836H156.866ZM107.051 153.724H156.866V203.552H107.051V153.724ZM107.051 204.612H156.866V254.44H107.051V204.612ZM107.051 255.5H156.866V305.328H107.051V255.5ZM107.051 306.388H156.866V356.216H107.051V306.388ZM107.051 357.276H156.866V407.104H107.051V357.276ZM107.051 408.164H156.866V457.992H107.051V408.164ZM107.051 459.052H156.866V508.88H107.051V459.052ZM107.051 509.94H156.866V559.768H107.051V509.94ZM107.051 560.828H156.866V610.656H107.051V560.828ZM107.051 611.716H156.866V661.544H107.051V611.716ZM107.051 662.604H156.866V712.432H107.051V662.604ZM107.051 713.492H156.866V763.32H107.051V713.492ZM107.051 764.38H156.866V814.207H107.051V764.38ZM107.051 815.268H156.866V865.095H107.051V815.268ZM107.051 866.156H156.866V915.983H107.051V866.156ZM107.051 917.044H156.866V966.871H107.051V917.044ZM107.051 967.932H156.866V1017.76H107.051V967.932ZM107.051 1018.82H156.866V1068.65H107.051V1018.82ZM107.051 1069.71H156.866V1119.54H107.051V1069.71ZM107.051 1120.6H156.866V1170.42H107.051V1120.6ZM107.051 1171.48H156.866V1221.31H107.051V1171.48ZM107.051 1222.37H156.866V1272.2H107.051V1222.37ZM107.051 1273.26H156.866V1323.09H107.051V1273.26ZM107.051 1324.15H156.866V1373.98H107.051V1324.15ZM107.051 1375.04H156.866V1424.86H107.051V1375.04ZM107.051 1425.92H156.866V1475.75H107.051V1425.92ZM107.051 1476.81H156.866V1526.64H107.051V1476.81ZM107.051 1527.7H156.866V1577.53H107.051V1527.7ZM107.051 1578.59H156.866V1628.41H107.051V1578.59ZM107.051 1629.48H156.866V1679.3H107.051V1629.48ZM107.051 1680.36H156.866V1730.19H107.051V1680.36ZM107.051 1731.25H156.866V1781.08H107.051V1731.25ZM107.051 1782.14H156.866V1831.97H107.051V1782.14ZM107.051 1833.03H156.866V1882.85H107.051V1833.03ZM107.051 1883.91H156.866V1933.74H107.051V1883.91ZM157.926 1933.74V1883.91H207.742V1933.74H157.926ZM208.802 1933.74V1883.91H258.618V1933.74H208.802ZM259.678 1933.74V1883.91H309.493V1933.74H259.678ZM310.553 1933.74V1883.91H360.369V1933.74H310.553ZM361.429 1933.74V1883.91H411.244V1933.74H361.429ZM412.304 1933.74V1883.91H462.12V1933.74H412.304ZM463.18 1933.74V1883.91H512.996V1933.74H463.18ZM514.055 1933.74V1883.91H563.871V1933.74H514.055ZM564.931 1933.74V1883.91H614.747V1933.74H564.931ZM615.807 1933.74V1883.91H665.622V1933.74H615.807ZM666.682 1933.74V1883.91H716.498V1933.74H666.682ZM717.558 1933.74V1883.91H767.373V1933.74H717.558ZM768.433 1933.74V1883.91H818.249V1933.74H768.433ZM819.309 1933.74V1883.91H869.125V1933.74H819.309ZM870.185 1933.74V1883.91H920V1933.74H870.185ZM921.06 1933.74V1883.91H970.876V1933.74H921.06ZM971.936 1933.74V1883.91H1021.75V1933.74H971.936ZM1021.75 1882.85H971.936V1833.03H1021.75V1882.85ZM1021.75 1831.97H971.936V1782.14H1021.75V1831.97ZM1021.75 1781.08H971.936V1731.25H1021.75V1781.08ZM1021.75 1730.19H971.936V1680.36H1021.75V1730.19ZM1021.75 1679.3H971.936V1629.48H1021.75V1679.3ZM1021.75 1628.41H971.936V1578.59H1021.75V1628.41ZM1021.75 1577.53H971.936V1527.7H1021.75V1577.53ZM1021.75 1526.64H971.936V1476.81H1021.75V1526.64ZM1021.75 1475.75H971.936V1425.92H1021.75V1475.75ZM1021.75 1424.86H971.936V1375.04H1021.75V1424.86ZM1021.75 1373.98H971.936V1324.15H1021.75V1373.98ZM1021.75 1323.09H971.936V1273.26H1021.75V1323.09ZM1021.75 1272.2H971.936V1222.37H1021.75V1272.2ZM1021.75 1221.31H971.936V1171.48H1021.75V1221.31ZM1021.75 1170.42H971.936V1120.6H1021.75V1170.42ZM1021.75 1119.54H971.936V1069.71H1021.75V1119.54ZM1021.75 1068.65H971.936V1018.82H1021.75V1068.65ZM1021.75 1017.76H971.936V967.932H1021.75V1017.76ZM1021.75 966.871H971.936V917.044H1021.75V966.871ZM1021.75 915.983H971.936V866.156H1021.75V915.983ZM1021.75 865.095H971.936V815.268H1021.75V865.095ZM1021.75 814.207H971.936V764.38H1021.75V814.207ZM1021.75 763.32H971.936V713.492H1021.75V763.32ZM1021.75 712.432H971.936V662.604H1021.75V712.432ZM1021.75 661.544H971.936V611.716H1021.75V661.544ZM1021.75 610.656H971.936V560.828H1021.75V610.656ZM1021.75 559.768H971.936V509.94H1021.75V559.768ZM1021.75 508.88H971.936V459.052H1021.75V508.88ZM1021.75 457.992H971.936V408.164H1021.75V457.992ZM1021.75 407.104H971.936V357.276H1021.75V407.104ZM1021.75 356.216H971.936V306.388H1021.75V356.216ZM1021.75 305.328H971.936V255.5H1021.75V305.328ZM1021.75 254.44H971.936V204.612H1021.75V254.44ZM1021.75 203.552H971.936V153.724H1021.75V203.552ZM970.876 153.724V203.552H921.06V153.724H970.876ZM920 153.724V203.552H870.185V153.724H920ZM869.125 153.724V203.552H819.309V153.724H869.125ZM818.249 153.724V203.552H768.433V153.724H818.249ZM767.373 153.724V203.552H717.558V153.724H767.373ZM716.498 153.724V203.552H666.682V153.724H716.498ZM665.622 153.724V203.552H615.807V153.724H665.622ZM614.747 153.724V203.552H564.931V153.724H614.747ZM563.871 153.724V203.552H514.055V153.724H563.871ZM512.996 153.724V203.552H463.18V153.724H512.996ZM462.12 153.724V203.552H412.304V153.724H462.12ZM411.244 153.724V203.552H361.429V153.724H411.244ZM360.369 153.724V203.552H310.553V153.724H360.369ZM309.493 153.724V203.552H259.678V153.724H309.493ZM258.618 153.724V203.552H208.802V153.724H258.618ZM207.742 153.724V203.552H157.926V153.724H207.742ZM157.926 204.612H207.742V254.44H157.926V204.612ZM157.926 255.5H207.742V305.328H157.926V255.5ZM157.926 306.388H207.742V356.216H157.926V306.388ZM157.926 357.276H207.742V407.104H157.926V357.276ZM157.926 408.164H207.742V457.992H157.926V408.164ZM157.926 459.052H207.742V508.88H157.926V459.052ZM157.926 509.94H207.742V559.768H157.926V509.94ZM157.926 560.828H207.742V610.656H157.926V560.828ZM157.926 611.716H207.742V661.544H157.926V611.716ZM157.926 662.604H207.742V712.432H157.926V662.604ZM157.926 713.492H207.742V763.32H157.926V713.492ZM157.926 764.38H207.742V814.207H157.926V764.38ZM157.926 815.268H207.742V865.095H157.926V815.268ZM157.926 866.156H207.742V915.983H157.926V866.156ZM157.926 917.044H207.742V966.871H157.926V917.044ZM157.926 967.932H207.742V1017.76H157.926V967.932ZM157.926 1018.82H207.742V1068.65H157.926V1018.82ZM157.926 1069.71H207.742V1119.54H157.926V1069.71ZM157.926 1120.6H207.742V1170.42H157.926V1120.6ZM157.926 1171.48H207.742V1221.31H157.926V1171.48ZM157.926 1222.37H207.742V1272.2H157.926V1222.37ZM157.926 1273.26H207.742V1323.09H157.926V1273.26ZM157.926 1324.15H207.742V1373.98H157.926V1324.15ZM157.926 1375.04H207.742V1424.86H157.926V1375.04ZM157.926 1425.92H207.742V1475.75H157.926V1425.92ZM157.926 1476.81H207.742V1526.64H157.926V1476.81ZM157.926 1527.7H207.742V1577.53H157.926V1527.7ZM157.926 1578.59H207.742V1628.41H157.926V1578.59ZM157.926 1629.48H207.742V1679.3H157.926V1629.48ZM157.926 1680.36H207.742V1730.19H157.926V1680.36ZM157.926 1731.25H207.742V1781.08H157.926V1731.25ZM157.926 1782.14H207.742V1831.97H157.926V1782.14ZM157.926 1833.03H207.742V1882.85H157.926V1833.03ZM208.802 1882.85V1833.03H258.618V1882.85H208.802ZM259.678 1882.85V1833.03H309.493V1882.85H259.678ZM310.553 1882.85V1833.03H360.369V1882.85H310.553ZM361.429 1882.85V1833.03H411.244V1882.85H361.429ZM412.304 1882.85V1833.03H462.12V1882.85H412.304ZM463.18 1882.85V1833.03H512.996V1882.85H463.18ZM514.055 1882.85V1833.03H563.871V1882.85H514.055ZM564.931 1882.85V1833.03H614.747V1882.85H564.931ZM615.807 1882.85V1833.03H665.622V1882.85H615.807ZM666.682 1882.85V1833.03H716.498V1882.85H666.682ZM717.558 1882.85V1833.03H767.373V1882.85H717.558ZM768.433 1882.85V1833.03H818.249V1882.85H768.433ZM819.309 1882.85V1833.03H869.125V1882.85H819.309ZM870.185 1882.85V1833.03H920V1882.85H870.185ZM921.06 1882.85V1833.03H970.876V1882.85H921.06ZM970.876 1831.97H921.06V1782.14H970.876V1831.97ZM970.876 1781.08H921.06V1731.25H970.876V1781.08ZM970.876 1730.19H921.06V1680.36H970.876V1730.19ZM970.876 1679.3H921.06V1629.48H970.876V1679.3ZM970.876 1628.41H921.06V1578.59H970.876V1628.41ZM970.876 1577.53H921.06V1527.7H970.876V1577.53ZM970.876 1526.64H921.06V1476.81H970.876V1526.64ZM970.876 1475.75H921.06V1425.92H970.876V1475.75ZM970.876 1424.86H921.06V1375.04H970.876V1424.86ZM970.876 1373.98H921.06V1324.15H970.876V1373.98ZM970.876 1323.09H921.06V1273.26H970.876V1323.09ZM970.876 1272.2H921.06V1222.37H970.876V1272.2ZM970.876 1221.31H921.06V1171.48H970.876V1221.31ZM970.876 1170.42H921.06V1120.6H970.876V1170.42ZM970.876 1119.54H921.06V1069.71H970.876V1119.54ZM970.876 1068.65H921.06V1018.82H970.876V1068.65ZM970.876 1017.76H921.06V967.932H970.876V1017.76ZM970.876 966.871H921.06V917.044H970.876V966.871ZM970.876 915.983H921.06V866.156H970.876V915.983ZM970.876 865.095H921.06V815.268H970.876V865.095ZM970.876 814.207H921.06V764.38H970.876V814.207ZM970.876 763.32H921.06V713.492H970.876V763.32ZM970.876 712.432H921.06V662.604H970.876V712.432ZM970.876 661.544H921.06V611.716H970.876V661.544ZM970.876 610.656H921.06V560.828H970.876V610.656ZM970.876 559.768H921.06V509.94H970.876V559.768ZM970.876 508.88H921.06V459.052H970.876V508.88ZM970.876 457.992H921.06V408.164H970.876V457.992ZM970.876 407.104H921.06V357.276H970.876V407.104ZM970.876 356.216H921.06V306.388H970.876V356.216ZM970.876 305.328H921.06V255.5H970.876V305.328ZM970.876 254.44H921.06V204.612H970.876V254.44ZM920 204.612V254.44H870.185V204.612H920ZM869.125 204.612V254.44H819.309V204.612H869.125ZM818.249 204.612V254.44H768.433V204.612H818.249ZM767.373 204.612V254.44H717.558V204.612H767.373ZM716.498 204.612V254.44H666.682V204.612H716.498ZM665.622 204.612V254.44H615.807V204.612H665.622ZM614.747 204.612V254.44H564.931V204.612H614.747ZM563.871 204.612V254.44H514.055V204.612H563.871ZM512.996 204.612V254.44H463.18V204.612H512.996ZM462.12 204.612V254.44H412.304V204.612H462.12ZM411.244 204.612V254.44H361.429V204.612H411.244ZM360.369 204.612V254.44H310.553V204.612H360.369ZM309.493 204.612V254.44H259.678V204.612H309.493ZM258.618 204.612V254.44H208.802V204.612H258.618ZM208.802 255.5H258.618V305.328H208.802V255.5ZM208.802 306.388H258.618V356.216H208.802V306.388ZM208.802 357.276H258.618V407.104H208.802V357.276ZM208.802 408.164H258.618V457.992H208.802V408.164ZM208.802 459.052H258.618V508.88H208.802V459.052ZM208.802 509.94H258.618V559.768H208.802V509.94ZM208.802 560.828H258.618V610.656H208.802V560.828ZM208.802 611.716H258.618V661.544H208.802V611.716ZM208.802 662.604H258.618V712.432H208.802V662.604ZM208.802 713.492H258.618V763.32H208.802V713.492ZM208.802 764.38H258.618V814.207H208.802V764.38ZM208.802 815.268H258.618V865.095H208.802V815.268ZM208.802 866.156H258.618V915.983H208.802V866.156ZM208.802 917.044H258.618V966.871H208.802V917.044ZM208.802 967.932H258.618V1017.76H208.802V967.932ZM208.802 1018.82H258.618V1068.65H208.802V1018.82ZM208.802 1069.71H258.618V1119.54H208.802V1069.71ZM208.802 1120.6H258.618V1170.42H208.802V1120.6ZM208.802 1171.48H258.618V1221.31H208.802V1171.48ZM208.802 1222.37H258.618V1272.2H208.802V1222.37ZM208.802 1273.26H258.618V1323.09H208.802V1273.26ZM208.802 1324.15H258.618V1373.98H208.802V1324.15ZM208.802 1375.04H258.618V1424.86H208.802V1375.04ZM208.802 1425.92H258.618V1475.75H208.802V1425.92ZM208.802 1476.81H258.618V1526.64H208.802V1476.81ZM208.802 1527.7H258.618V1577.53H208.802V1527.7ZM208.802 1578.59H258.618V1628.41H208.802V1578.59ZM208.802 1629.48H258.618V1679.3H208.802V1629.48ZM208.802 1680.36H258.618V1730.19H208.802V1680.36ZM208.802 1731.25H258.618V1781.08H208.802V1731.25ZM208.802 1782.14H258.618V1831.97H208.802V1782.14ZM259.678 1831.97V1782.14H309.493V1831.97H259.678ZM310.553 1831.97V1782.14H360.369V1831.97H310.553ZM361.429 1831.97V1782.14H411.244V1831.97H361.429ZM412.304 1831.97V1782.14H462.12V1831.97H412.304ZM463.18 1831.97V1782.14H512.996V1831.97H463.18ZM514.055 1831.97V1782.14H563.871V1831.97H514.055ZM564.931 1831.97V1782.14H614.747V1831.97H564.931ZM615.807 1831.97V1782.14H665.622V1831.97H615.807ZM666.682 1831.97V1782.14H716.498V1831.97H666.682ZM717.558 1831.97V1782.14H767.373V1831.97H717.558ZM768.433 1831.97V1782.14H818.249V1831.97H768.433ZM819.309 1831.97V1782.14H869.125V1831.97H819.309ZM870.185 1831.97V1782.14H920V1831.97H870.185ZM920 1781.08H870.185V1731.25H920V1781.08ZM920 1730.19H870.185V1680.36H920V1730.19ZM920 1679.3H870.185V1629.48H920V1679.3ZM920 1628.41H870.185V1578.59H920V1628.41ZM920 1577.53H870.185V1527.7H920V1577.53ZM920 1526.64H870.185V1476.81H920V1526.64ZM920 1475.75H870.185V1425.92H920V1475.75ZM920 1424.86H870.185V1375.04H920V1424.86ZM920 1373.98H870.185V1324.15H920V1373.98ZM920 1323.09H870.185V1273.26H920V1323.09ZM920 1272.2H870.185V1222.37H920V1272.2ZM920 1221.31H870.185V1171.48H920V1221.31ZM920 1170.42H870.185V1120.6H920V1170.42ZM920 1119.54H870.185V1069.71H920V1119.54ZM920 1068.65H870.185V1018.82H920V1068.65ZM920 1017.76H870.185V967.932H920V1017.76ZM920 966.871H870.185V917.044H920V966.871ZM920 915.983H870.185V866.156H920V915.983ZM920 865.095H870.185V815.268H920V865.095ZM920 814.207H870.185V764.38H920V814.207ZM920 763.32H870.185V713.492H920V763.32ZM920 712.432H870.185V662.604H920V712.432ZM920 661.544H870.185V611.716H920V661.544ZM920 610.656H870.185V560.828H920V610.656ZM920 559.768H870.185V509.94H920V559.768ZM920 508.88H870.185V459.052H920V508.88ZM920 457.992H870.185V408.164H920V457.992ZM920 407.104H870.185V357.276H920V407.104ZM920 356.216H870.185V306.388H920V356.216ZM920 305.328H870.185V255.5H920V305.328ZM869.125 255.5V305.328H819.309V255.5H869.125ZM818.249 255.5V305.328H768.433V255.5H818.249ZM767.373 255.5V305.328H717.558V255.5H767.373ZM716.498 255.5V305.328H666.682V255.5H716.498ZM665.622 255.5V305.328H615.807V255.5H665.622ZM614.747 255.5V305.328H564.931V255.5H614.747ZM563.871 255.5V305.328H514.055V255.5H563.871ZM512.996 255.5V305.328H463.18V255.5H512.996ZM462.12 255.5V305.328H412.304V255.5H462.12ZM411.244 255.5V305.328H361.429V255.5H411.244ZM360.369 255.5V305.328H310.553V255.5H360.369ZM309.493 255.5V305.328H259.678V255.5H309.493ZM259.678 306.388H309.493V356.216H259.678V306.388ZM259.678 357.276H309.493V407.104H259.678V357.276ZM259.678 408.164H309.493V457.992H259.678V408.164ZM259.678 459.052H309.493V508.88H259.678V459.052ZM259.678 509.94H309.493V559.768H259.678V509.94ZM259.678 560.828H309.493V610.656H259.678V560.828ZM259.678 611.716H309.493V661.544H259.678V611.716ZM259.678 662.604H309.493V712.432H259.678V662.604ZM259.678 713.492H309.493V763.32H259.678V713.492ZM259.678 764.38H309.493V814.207H259.678V764.38ZM259.678 815.268H309.493V865.095H259.678V815.268ZM259.678 866.156H309.493V915.983H259.678V866.156ZM259.678 917.044H309.493V966.871H259.678V917.044ZM259.678 967.932H309.493V1017.76H259.678V967.932ZM259.678 1018.82H309.493V1068.65H259.678V1018.82ZM259.678 1069.71H309.493V1119.54H259.678V1069.71ZM259.678 1120.6H309.493V1170.42H259.678V1120.6ZM259.678 1171.48H309.493V1221.31H259.678V1171.48ZM259.678 1222.37H309.493V1272.2H259.678V1222.37ZM259.678 1273.26H309.493V1323.09H259.678V1273.26ZM259.678 1324.15H309.493V1373.98H259.678V1324.15ZM259.678 1375.04H309.493V1424.86H259.678V1375.04ZM259.678 1425.92H309.493V1475.75H259.678V1425.92ZM259.678 1476.81H309.493V1526.64H259.678V1476.81ZM259.678 1527.7H309.493V1577.53H259.678V1527.7ZM259.678 1578.59H309.493V1628.41H259.678V1578.59ZM259.678 1629.48H309.493V1679.3H259.678V1629.48ZM259.678 1680.36H309.493V1730.19H259.678V1680.36ZM259.678 1731.25H309.493V1781.08H259.678V1731.25ZM310.553 1781.08V1731.25H360.369V1781.08H310.553ZM361.429 1781.08V1731.25H411.244V1781.08H361.429ZM412.304 1781.08V1731.25H462.12V1781.08H412.304ZM463.18 1781.08V1731.25H512.996V1781.08H463.18ZM514.055 1781.08V1731.25H563.871V1781.08H514.055ZM564.931 1781.08V1731.25H614.747V1781.08H564.931ZM615.807 1781.08V1731.25H665.622V1781.08H615.807ZM666.682 1781.08V1731.25H716.498V1781.08H666.682ZM717.558 1781.08V1731.25H767.373V1781.08H717.558ZM768.433 1781.08V1731.25H818.249V1781.08H768.433ZM819.309 1781.08V1731.25H869.125V1781.08H819.309ZM869.125 1730.19H819.309V1680.36H869.125V1730.19ZM869.125 1679.3H819.309V1629.48H869.125V1679.3ZM869.125 1628.41H819.309V1578.59H869.125V1628.41ZM869.125 1577.53H819.309V1527.7H869.125V1577.53ZM869.125 1526.64H819.309V1476.81H869.125V1526.64ZM869.125 1475.75H819.309V1425.92H869.125V1475.75ZM869.125 1424.86H819.309V1375.04H869.125V1424.86ZM869.125 1373.98H819.309V1324.15H869.125V1373.98ZM869.125 1323.09H819.309V1273.26H869.125V1323.09ZM869.125 1272.2H819.309V1222.37H869.125V1272.2ZM869.125 1221.31H819.309V1171.48H869.125V1221.31ZM869.125 1170.42H819.309V1120.6H869.125V1170.42ZM869.125 1119.54H819.309V1069.71H869.125V1119.54ZM869.125 1068.65H819.309V1018.82H869.125V1068.65ZM869.125 1017.76H819.309V967.932H869.125V1017.76ZM869.125 966.871H819.309V917.044H869.125V966.871ZM869.125 915.983H819.309V866.156H869.125V915.983ZM869.125 865.095H819.309V815.268H869.125V865.095ZM869.125 814.207H819.309V764.38H869.125V814.207ZM869.125 763.32H819.309V713.492H869.125V763.32ZM869.125 712.432H819.309V662.604H869.125V712.432ZM869.125 661.544H819.309V611.716H869.125V661.544ZM869.125 610.656H819.309V560.828H869.125V610.656ZM869.125 559.768H819.309V509.94H869.125V559.768ZM869.125 508.88H819.309V459.052H869.125V508.88ZM869.125 457.992H819.309V408.164H869.125V457.992ZM869.125 407.104H819.309V357.276H869.125V407.104ZM869.125 356.216H819.309V306.388H869.125V356.216ZM818.249 306.388V356.216H768.433V306.388H818.249ZM767.373 306.388V356.216H717.558V306.388H767.373ZM716.498 306.388V356.216H666.682V306.388H716.498ZM665.622 306.388V356.216H615.807V306.388H665.622ZM614.747 306.388V356.216H564.931V306.388H614.747ZM563.871 306.388V356.216H514.055V306.388H563.871ZM512.996 306.388V356.216H463.18V306.388H512.996ZM462.12 306.388V356.216H412.304V306.388H462.12ZM411.244 306.388V356.216H361.429V306.388H411.244ZM360.369 306.388V356.216H310.553V306.388H360.369ZM310.553 357.276H360.369V407.104H310.553V357.276ZM310.553 408.164H360.369V457.992H310.553V408.164ZM310.553 459.052H360.369V508.88H310.553V459.052ZM310.553 509.94H360.369V559.768H310.553V509.94ZM310.553 560.828H360.369V610.656H310.553V560.828ZM310.553 611.716H360.369V661.544H310.553V611.716ZM310.553 662.604H360.369V712.432H310.553V662.604ZM310.553 713.492H360.369V763.32H310.553V713.492ZM310.553 764.38H360.369V814.207H310.553V764.38ZM310.553 815.268H360.369V865.095H310.553V815.268ZM310.553 866.156H360.369V915.983H310.553V866.156ZM310.553 917.044H360.369V966.871H310.553V917.044ZM310.553 967.932H360.369V1017.76H310.553V967.932ZM310.553 1018.82H360.369V1068.65H310.553V1018.82ZM310.553 1069.71H360.369V1119.54H310.553V1069.71ZM310.553 1120.6H360.369V1170.42H310.553V1120.6ZM310.553 1171.48H360.369V1221.31H310.553V1171.48ZM310.553 1222.37H360.369V1272.2H310.553V1222.37ZM310.553 1273.26H360.369V1323.09H310.553V1273.26ZM310.553 1324.15H360.369V1373.98H310.553V1324.15ZM310.553 1375.04H360.369V1424.86H310.553V1375.04ZM310.553 1425.92H360.369V1475.75H310.553V1425.92ZM310.553 1476.81H360.369V1526.64H310.553V1476.81ZM310.553 1527.7H360.369V1577.53H310.553V1527.7ZM310.553 1578.59H360.369V1628.41H310.553V1578.59ZM310.553 1629.48H360.369V1679.3H310.553V1629.48ZM310.553 1680.36H360.369V1730.19H310.553V1680.36ZM361.429 1730.19V1680.36H411.244V1730.19H361.429ZM412.304 1730.19V1680.36H462.12V1730.19H412.304ZM463.18 1730.19V1680.36H512.996V1730.19H463.18ZM514.055 1730.19V1680.36H563.871V1730.19H514.055ZM564.931 1730.19V1680.36H614.747V1730.19H564.931ZM615.807 1730.19V1680.36H665.622V1730.19H615.807ZM666.682 1730.19V1680.36H716.498V1730.19H666.682ZM717.558 1730.19V1680.36H767.373V1730.19H717.558ZM768.433 1730.19V1680.36H818.249V1730.19H768.433ZM818.249 1679.3H768.433V1629.48H818.249V1679.3ZM818.249 1628.41H768.433V1578.59H818.249V1628.41ZM818.249 1577.53H768.433V1527.7H818.249V1577.53ZM818.249 1526.64H768.433V1476.81H818.249V1526.64ZM818.249 1475.75H768.433V1425.92H818.249V1475.75ZM818.249 1424.86H768.433V1375.04H818.249V1424.86ZM818.249 1373.98H768.433V1324.15H818.249V1373.98ZM818.249 1323.09H768.433V1273.26H818.249V1323.09ZM818.249 1272.2H768.433V1222.37H818.249V1272.2ZM818.249 1221.31H768.433V1171.48H818.249V1221.31ZM818.249 1170.42H768.433V1120.6H818.249V1170.42ZM818.249 1119.54H768.433V1069.71H818.249V1119.54ZM818.249 1068.65H768.433V1018.82H818.249V1068.65ZM818.249 1017.76H768.433V967.932H818.249V1017.76ZM818.249 966.871H768.433V917.044H818.249V966.871ZM818.249 915.983H768.433V866.156H818.249V915.983ZM818.249 865.095H768.433V815.268H818.249V865.095ZM818.249 814.207H768.433V764.38H818.249V814.207ZM818.249 763.32H768.433V713.492H818.249V763.32ZM818.249 712.432H768.433V662.604H818.249V712.432ZM818.249 661.544H768.433V611.716H818.249V661.544ZM818.249 610.656H768.433V560.828H818.249V610.656ZM818.249 559.768H768.433V509.94H818.249V559.768ZM818.249 508.88H768.433V459.052H818.249V508.88ZM818.249 457.992H768.433V408.164H818.249V457.992ZM818.249 407.104H768.433V357.276H818.249V407.104ZM767.373 357.276V407.104H717.558V357.276H767.373ZM716.498 357.276V407.104H666.682V357.276H716.498ZM665.622 357.276V407.104H615.807V357.276H665.622ZM614.747 357.276V407.104H564.931V357.276H614.747ZM563.871 357.276V407.104H514.055V357.276H563.871ZM512.996 357.276V407.104H463.18V357.276H512.996ZM462.12 357.276V407.104H412.304V357.276H462.12ZM411.244 357.276V407.104H361.429V357.276H411.244ZM361.429 408.164H411.244V457.992H361.429V408.164ZM361.429 459.052H411.244V508.88H361.429V459.052ZM361.429 509.94H411.244V559.768H361.429V509.94ZM361.429 560.828H411.244V610.656H361.429V560.828ZM361.429 611.716H411.244V661.544H361.429V611.716ZM361.429 662.604H411.244V712.432H361.429V662.604ZM361.429 713.492H411.244V763.32H361.429V713.492ZM361.429 764.38H411.244V814.207H361.429V764.38ZM361.429 815.268H411.244V865.095H361.429V815.268ZM361.429 866.156H411.244V915.983H361.429V866.156ZM361.429 917.044H411.244V966.871H361.429V917.044ZM361.429 967.932H411.244V1017.76H361.429V967.932ZM361.429 1018.82H411.244V1068.65H361.429V1018.82ZM361.429 1069.71H411.244V1119.54H361.429V1069.71ZM361.429 1120.6H411.244V1170.42H361.429V1120.6ZM361.429 1171.48H411.244V1221.31H361.429V1171.48ZM361.429 1222.37H411.244V1272.2H361.429V1222.37ZM361.429 1273.26H411.244V1323.09H361.429V1273.26ZM361.429 1324.15H411.244V1373.98H361.429V1324.15ZM361.429 1375.04H411.244V1424.86H361.429V1375.04ZM361.429 1425.92H411.244V1475.75H361.429V1425.92ZM361.429 1476.81H411.244V1526.64H361.429V1476.81ZM361.429 1527.7H411.244V1577.53H361.429V1527.7ZM361.429 1578.59H411.244V1628.41H361.429V1578.59ZM361.429 1629.48H411.244V1679.3H361.429V1629.48ZM412.304 1679.3V1629.48H462.12V1679.3H412.304ZM463.18 1679.3V1629.48H512.996V1679.3H463.18ZM514.055 1679.3V1629.48H563.871V1679.3H514.055ZM564.931 1679.3V1629.48H614.747V1679.3H564.931ZM615.807 1679.3V1629.48H665.622V1679.3H615.807ZM666.682 1679.3V1629.48H716.498V1679.3H666.682ZM717.558 1679.3V1629.48H767.373V1679.3H717.558ZM767.373 1628.41H717.558V1578.59H767.373V1628.41ZM767.373 1577.53H717.558V1527.7H767.373V1577.53ZM767.373 1526.64H717.558V1476.81H767.373V1526.64ZM767.373 1475.75H717.558V1425.92H767.373V1475.75ZM767.373 1424.86H717.558V1375.04H767.373V1424.86ZM767.373 1373.98H717.558V1324.15H767.373V1373.98ZM767.373 1323.09H717.558V1273.26H767.373V1323.09ZM767.373 1272.2H717.558V1222.37H767.373V1272.2ZM767.373 1221.31H717.558V1171.48H767.373V1221.31ZM767.373 1170.42H717.558V1120.6H767.373V1170.42ZM767.373 1119.54H717.558V1069.71H767.373V1119.54ZM767.373 1068.65H717.558V1018.82H767.373V1068.65ZM767.373 1017.76H717.558V967.932H767.373V1017.76ZM767.373 966.871H717.558V917.044H767.373V966.871ZM767.373 915.983H717.558V866.156H767.373V915.983ZM767.373 865.095H717.558V815.268H767.373V865.095ZM767.373 814.207H717.558V764.38H767.373V814.207ZM767.373 763.32H717.558V713.492H767.373V763.32ZM767.373 712.432H717.558V662.604H767.373V712.432ZM767.373 661.544H717.558V611.716H767.373V661.544ZM767.373 610.656H717.558V560.828H767.373V610.656ZM767.373 559.768H717.558V509.94H767.373V559.768ZM767.373 508.88H717.558V459.052H767.373V508.88ZM767.373 457.992H717.558V408.164H767.373V457.992ZM716.498 408.164V457.992H666.682V408.164H716.498ZM665.622 408.164V457.992H615.807V408.164H665.622ZM614.747 408.164V457.992H564.931V408.164H614.747ZM563.871 408.164V457.992H514.055V408.164H563.871ZM512.996 408.164V457.992H463.18V408.164H512.996ZM462.12 408.164V457.992H412.304V408.164H462.12ZM412.304 459.052H462.12V508.88H412.304V459.052ZM412.304 509.94H462.12V559.768H412.304V509.94ZM412.304 560.828H462.12V610.656H412.304V560.828ZM412.304 611.716H462.12V661.544H412.304V611.716ZM412.304 662.604H462.12V712.432H412.304V662.604ZM412.304 713.492H462.12V763.32H412.304V713.492ZM412.304 764.38H462.12V814.207H412.304V764.38ZM412.304 815.268H462.12V865.095H412.304V815.268ZM412.304 866.156H462.12V915.983H412.304V866.156ZM412.304 917.044H462.12V966.871H412.304V917.044ZM412.304 967.932H462.12V1017.76H412.304V967.932ZM412.304 1018.82H462.12V1068.65H412.304V1018.82ZM412.304 1069.71H462.12V1119.54H412.304V1069.71ZM412.304 1120.6H462.12V1170.42H412.304V1120.6ZM412.304 1171.48H462.12V1221.31H412.304V1171.48ZM412.304 1222.37H462.12V1272.2H412.304V1222.37ZM412.304 1273.26H462.12V1323.09H412.304V1273.26ZM412.304 1324.15H462.12V1373.98H412.304V1324.15ZM412.304 1375.04H462.12V1424.86H412.304V1375.04ZM412.304 1425.92H462.12V1475.75H412.304V1425.92ZM412.304 1476.81H462.12V1526.64H412.304V1476.81ZM412.304 1527.7H462.12V1577.53H412.304V1527.7ZM412.304 1578.59H462.12V1628.41H412.304V1578.59ZM463.18 1628.41V1578.59H512.996V1628.41H463.18ZM514.055 1628.41V1578.59H563.871V1628.41H514.055ZM564.931 1628.41V1578.59H614.747V1628.41H564.931ZM615.807 1628.41V1578.59H665.622V1628.41H615.807ZM666.682 1628.41V1578.59H716.498V1628.41H666.682ZM716.498 1577.53H666.682V1527.7H716.498V1577.53ZM716.498 1526.64H666.682V1476.81H716.498V1526.64ZM716.498 1475.75H666.682V1425.92H716.498V1475.75ZM716.498 1424.86H666.682V1375.04H716.498V1424.86ZM716.498 1373.98H666.682V1324.15H716.498V1373.98ZM716.498 1323.09H666.682V1273.26H716.498V1323.09ZM716.498 1272.2H666.682V1222.37H716.498V1272.2ZM716.498 1221.31H666.682V1171.48H716.498V1221.31ZM716.498 1170.42H666.682V1120.6H716.498V1170.42ZM716.498 1119.54H666.682V1069.71H716.498V1119.54ZM716.498 1068.65H666.682V1018.82H716.498V1068.65ZM716.498 1017.76H666.682V967.932H716.498V1017.76ZM716.498 966.871H666.682V917.044H716.498V966.871ZM716.498 915.983H666.682V866.156H716.498V915.983ZM716.498 865.095H666.682V815.268H716.498V865.095ZM716.498 814.207H666.682V764.38H716.498V814.207ZM716.498 763.32H666.682V713.492H716.498V763.32ZM716.498 712.432H666.682V662.604H716.498V712.432ZM716.498 661.544H666.682V611.716H716.498V661.544ZM716.498 610.656H666.682V560.828H716.498V610.656ZM716.498 559.768H666.682V509.94H716.498V559.768ZM716.498 508.88H666.682V459.052H716.498V508.88ZM665.622 459.052V508.88H615.807V459.052H665.622ZM614.747 459.052V508.88H564.931V459.052H614.747ZM563.871 459.052V508.88H514.055V459.052H563.871ZM512.996 459.052V508.88H463.18V459.052H512.996ZM463.18 509.94H512.996V559.768H463.18V509.94ZM463.18 560.828H512.996V610.656H463.18V560.828ZM463.18 611.716H512.996V661.544H463.18V611.716ZM463.18 662.604H512.996V712.432H463.18V662.604ZM463.18 713.492H512.996V763.32H463.18V713.492ZM463.18 764.38H512.996V814.207H463.18V764.38ZM463.18 815.268H512.996V865.095H463.18V815.268ZM463.18 866.156H512.996V915.983H463.18V866.156ZM463.18 917.044H512.996V966.871H463.18V917.044ZM463.18 967.932H512.996V1017.76H463.18V967.932ZM463.18 1018.82H512.996V1068.65H463.18V1018.82ZM463.18 1069.71H512.996V1119.54H463.18V1069.71ZM463.18 1120.6H512.996V1170.42H463.18V1120.6ZM463.18 1171.48H512.996V1221.31H463.18V1171.48ZM463.18 1222.37H512.996V1272.2H463.18V1222.37ZM463.18 1273.26H512.996V1323.09H463.18V1273.26ZM463.18 1324.15H512.996V1373.98H463.18V1324.15ZM463.18 1375.04H512.996V1424.86H463.18V1375.04ZM463.18 1425.92H512.996V1475.75H463.18V1425.92ZM463.18 1476.81H512.996V1526.64H463.18V1476.81ZM463.18 1527.7H512.996V1577.53H463.18V1527.7ZM514.055 1577.53V1527.7H563.871V1577.53H514.055ZM564.931 1577.53V1527.7H614.747V1577.53H564.931ZM615.807 1577.53V1527.7H665.622V1577.53H615.807ZM665.622 1526.64H615.807V1476.81H665.622V1526.64ZM665.622 1475.75H615.807V1425.92H665.622V1475.75ZM665.622 1424.86H615.807V1375.04H665.622V1424.86ZM665.622 1373.98H615.807V1324.15H665.622V1373.98ZM665.622 1323.09H615.807V1273.26H665.622V1323.09ZM665.622 1272.2H615.807V1222.37H665.622V1272.2ZM665.622 1221.31H615.807V1171.48H665.622V1221.31ZM665.622 1170.42H615.807V1120.6H665.622V1170.42ZM665.622 1119.54H615.807V1069.71H665.622V1119.54ZM665.622 1068.65H615.807V1018.82H665.622V1068.65ZM665.622 1017.76H615.807V967.932H665.622V1017.76ZM665.622 966.871H615.807V917.044H665.622V966.871ZM665.622 915.983H615.807V866.156H665.622V915.983ZM665.622 865.095H615.807V815.268H665.622V865.095ZM665.622 814.207H615.807V764.38H665.622V814.207ZM665.622 763.32H615.807V713.492H665.622V763.32ZM665.622 712.432H615.807V662.604H665.622V712.432ZM665.622 661.544H615.807V611.716H665.622V661.544ZM665.622 610.656H615.807V560.828H665.622V610.656ZM665.622 559.768H615.807V509.94H665.622V559.768ZM614.747 509.94V559.768H564.931V509.94H614.747ZM563.871 509.94V559.768H514.055V509.94H563.871ZM514.055 560.828H563.871V610.656H514.055V560.828ZM514.055 611.716H563.871V661.544H514.055V611.716ZM514.055 662.604H563.871V712.432H514.055V662.604ZM514.055 713.492H563.871V763.32H514.055V713.492ZM514.055 764.38H563.871V814.207H514.055V764.38ZM514.055 815.268H563.871V865.095H514.055V815.268ZM514.055 866.156H563.871V915.983H514.055V866.156ZM514.055 917.044H563.871V966.871H514.055V917.044ZM514.055 967.932H563.871V1017.76H514.055V967.932ZM514.055 1018.82H563.871V1068.65H514.055V1018.82ZM514.055 1069.71H563.871V1119.54H514.055V1069.71ZM514.055 1120.6H563.871V1170.42H514.055V1120.6ZM514.055 1171.48H563.871V1221.31H514.055V1171.48ZM514.055 1222.37H563.871V1272.2H514.055V1222.37ZM514.055 1273.26H563.871V1323.09H514.055V1273.26ZM514.055 1324.15H563.871V1373.98H514.055V1324.15ZM514.055 1375.04H563.871V1424.86H514.055V1375.04ZM514.055 1425.92H563.871V1475.75H514.055V1425.92ZM514.055 1476.81H563.871V1526.64H514.055V1476.81ZM564.931 1526.64V1476.81H614.747V1526.64H564.931ZM614.747 1475.75H564.931V1425.92H614.747V1475.75ZM614.747 1424.86H564.931V1375.04H614.747V1424.86ZM614.747 1373.98H564.931V1324.15H614.747V1373.98ZM614.747 1323.09H564.931V1273.26H614.747V1323.09ZM614.747 1272.2H564.931V1222.37H614.747V1272.2ZM614.747 1221.31H564.931V1171.48H614.747V1221.31ZM614.747 1170.42H564.931V1120.6H614.747V1170.42ZM614.747 1119.54H564.931V1069.71H614.747V1119.54ZM614.747 1068.65H564.931V1018.82H614.747V1068.65ZM614.747 1017.76H564.931V967.932H614.747V1017.76ZM614.747 966.871H564.931V917.044H614.747V966.871ZM614.747 915.983H564.931V866.156H614.747V915.983ZM614.747 865.095H564.931V815.268H614.747V865.095ZM614.747 814.207H564.931V764.38H614.747V814.207ZM614.747 763.32H564.931V713.492H614.747V763.32ZM614.747 712.432H564.931V662.604H614.747V712.432ZM614.747 661.544H564.931V611.716H614.747V661.544ZM614.747 610.656H564.931V560.828H614.747V610.656Z" fill="url(#paint1_linear_257_49)"/>
</g>
<path d="M2295.76 0H4.23975V2035.52H2295.76V0Z" fill="url(#paint2_linear_257_49)"/>
</g>
<defs>
<filter id="filter0_d_257_49" x="0.239746" y="0" width="2299.52" height="2043.52" filterUnits="userSpaceOnUse" color-interpolation-filters="sRGB">
<feFlood flood-opacity="0" result="BackgroundImageFix"/>
<feColorMatrix in="SourceAlpha" type="matrix" values="0 0 0 0 0 0 0 0 0 0 0 0 0 0 0 0 0 0 127 0" result="hardAlpha"/>
<feOffset dy="4"/>
<feGaussianBlur stdDeviation="2"/>
<feComposite in2="hardAlpha" operator="out"/>
<feColorMatrix type="matrix" values="0 0 0 0 0 0 0 0 0 0 0 0 0 0 0 0 0 0 0.25 0"/>
<feBlend mode="normal" in2="BackgroundImageFix" result="effect1_dropShadow_257_49"/>
<feBlend mode="normal" in="SourceGraphic" in2="effect1_dropShadow_257_49" result="shape"/>
</filter>
<linearGradient id="paint0_linear_257_49" x1="1962.68" y1="165.365" x2="2628.96" y2="671.044" gradientUnits="userSpaceOnUse">
<stop/>
<stop offset="1" stop-opacity="0.12"/>
</linearGradient>
<linearGradient id="paint1_linear_257_49" x1="329.764" y1="155.713" x2="-321.409" y2="680.697" gradientUnits="userSpaceOnUse">
<stop/>
<stop offset="1" stop-opacity="0.12"/>
</linearGradient>
<linearGradient id="paint2_linear_257_49" x1="1150" y1="0" x2="1150" y2="2035.52" gradientUnits="userSpaceOnUse">
<stop stop-color="white" stop-opacity="0"/>
<stop offset="1" stop-color="white" stop-opacity="0.12"/>
</linearGradient>
<clipPath id="clip0_257_49">
<rect width="2300" height="2044" fill="white"/>
</clipPath>
</defs>
</svg>
